<?xml version="1.0" encoding="UTF-8"?>
<svg id="logos_copy" data-name="logos copy" xmlns="http://www.w3.org/2000/svg" viewBox="0 0 2000 1200">
  <defs>
    <style>
      .cls-1 {
        fill: #fea236;
      }

      .cls-2 {
        fill: #9539ce;
      }

      .cls-3 {
        fill: #3f6a19;
      }

      .cls-4 {
        fill: #abcd50;
      }

      .cls-5 {
        fill: #332e76;
      }

      .cls-6 {
        fill: #e82e7b;
      }

      .cls-7 {
        fill: #f2413d;
      }

      .cls-8 {
        fill: #45a9e4;
      }

      .cls-9 {
        fill: #004ca9;
      }

      .cls-10 {
        fill: #f9ce20;
      }

      .cls-11 {
        fill: #7bd0bd;
      }
    </style>
  </defs>
  <g>
    <g>
      <path class="cls-9" d="M266.28,1050.64c-4.79-2.91-8.69-7.52-11.73-13.84-3.03-6.32-4.55-14.26-4.55-23.83,0-9.07,1.7-17.12,5.11-24.16,3.41-7.04,7.96-12.49,13.65-16.37,5.69-3.88,11.79-5.82,18.3-5.82,4.94,0,9.74,1.11,14.4,3.33,4.66,2.22,8.8,5.71,12.43,10.46l-1.88,17.55h-5.63c-2.44-8.88-5.41-15.51-8.91-19.89-3.5-4.38-7.16-6.57-10.98-6.57-3.25,0-6.32,1.55-9.2,4.64-2.88,3.1-5.18,7.46-6.9,13.09-1.72,5.63-2.58,12.11-2.58,19.43,0,8.69.84,15.98,2.53,21.86,1.69,5.88,3.89,10.21,6.62,13,2.72,2.78,5.61,4.18,8.68,4.18s5.58-1.2,7.93-3.61c2.35-2.41,4.19-5.88,5.54-10.42s2.02-9.87,2.02-16l-10.79-2.35v-5.54h23.55v44.19h-4.88l-4.6-12.85c-1.88,4.25-4.94,7.63-9.2,10.13-4.25,2.5-8.85,3.75-13.79,3.75-5.32,0-10.37-1.45-15.15-4.36Z"/>
      <path class="cls-9" d="M320.47,1031.74v-48.79h17.83v49.45c0,6.26.66,10.67,1.97,13.23,1.31,2.56,3.6,3.85,6.85,3.85,2.38,0,5.91-.75,10.6-2.25v-64.28h17.83v71.03h-2.35c-2.31-.5-4.5-.75-6.57-.75-3,0-6.82.41-11.45,1.22-1.88.31-3.77.58-5.68.8-1.91.22-3.64.33-5.21.33-15.89,0-23.83-7.94-23.83-23.83Z"/>
      <path class="cls-9" d="M388.49,974.83c-1.94-1.91-2.91-4.2-2.91-6.9s.97-5.08,2.91-6.99c1.94-1.91,4.25-2.86,6.94-2.86s4.99.97,6.9,2.91c1.91,1.94,2.86,4.26,2.86,6.94s-.95,4.91-2.86,6.85c-1.91,1.94-4.21,2.91-6.9,2.91s-5-.95-6.94-2.86ZM404.35,1053.97h-17.83v-71.03h17.83v71.03Z"/>
      <path class="cls-9" d="M452.39,968.4h17.83v85.58h-17.73v-5.82c-2.31,2.31-4.88,4.08-7.69,5.3-2.81,1.22-5.69,1.83-8.63,1.83-4.19,0-8.09-1.3-11.68-3.89-3.6-2.6-6.51-6.6-8.73-12.01-2.22-5.41-3.33-12.12-3.33-20.13s1.36-15.12,4.08-20.97c2.72-5.85,6.32-10.26,10.79-13.23,4.47-2.97,9.37-4.46,14.68-4.46,3.5,0,6.97.66,10.42,1.97v-14.17ZM446.62,1044.73c2.03-1.22,3.99-2.86,5.86-4.93l-.09-49.64c-3.32-1.31-6.22-1.97-8.73-1.97-4.82,0-8.41,2.52-10.79,7.56-2.38,5.04-3.57,12.87-3.57,23.5,0,9.57,1.06,16.51,3.19,20.83,2.13,4.32,4.88,6.47,8.26,6.47,1.88,0,3.83-.61,5.86-1.83Z"/>
      <path class="cls-9" d="M483.16,974.83c-1.94-1.91-2.91-4.2-2.91-6.9s.97-5.08,2.91-6.99c1.94-1.91,4.25-2.86,6.94-2.86s4.99.97,6.9,2.91c1.91,1.94,2.86,4.26,2.86,6.94s-.95,4.91-2.86,6.85c-1.91,1.94-4.21,2.91-6.9,2.91s-5-.95-6.94-2.86ZM499.02,1053.97h-17.83v-71.03h17.83v71.03Z"/>
      <path class="cls-9" d="M566.3,1053.97h-17.83v-54.7c0-2.88-.45-5.02-1.36-6.43s-2.14-2.11-3.71-2.11c-2.19,0-4.74,1.21-7.65,3.61-2.91,2.41-5.68,5.52-8.3,9.34v50.29h-17.83v-71.03h17.83v11.73c3.25-4.13,7.01-7.35,11.26-9.66,4.25-2.31,8.35-3.47,12.29-3.47,4.5,0,8.16,1.52,10.98,4.55,2.81,3.04,4.22,7.52,4.22,13.47l.09,54.42Z"/>
      <path class="cls-9" d="M624.61,1050.55c3.97,2.97,5.96,6.93,5.96,11.87,0,3.06-1.06,5.92-3.19,8.59-2.13,2.66-5.27,4.82-9.43,6.47-4.16,1.66-9.15,2.49-14.97,2.49-5.19,0-9.74-.61-13.65-1.83-3.91-1.22-6.99-2.63-9.24-4.22-2.25-1.6-3.78-3.02-4.6-4.27l1.31-15.01h4.6c1,4.07,2.56,7.49,4.69,10.27,2.13,2.78,4.52,4.85,7.18,6.19,2.66,1.34,5.33,2.02,8.02,2.02,3.38,0,6.19-.97,8.44-2.91,2.25-1.94,3.38-4.6,3.38-7.98,0-3.82-1.56-6.65-4.69-8.49-3.13-1.85-7.41-2.77-12.85-2.77-2.06,0-4.57.16-7.51.47v-6.76c1.5-.25,3.07-.44,4.69-.56-6.82-1.5-11.96-4.72-15.44-9.66-3.47-4.94-5.21-11.76-5.21-20.45,0-10.7,2.58-18.7,7.74-24.02,5.16-5.31,12.75-7.98,22.75-7.98,4.07,0,7.85.53,11.35,1.6,2.25-1.19,4.14-2.89,5.68-5.11,1.53-2.22,2.3-4.36,2.3-6.43h3.66l3.85,8.16c-1.5,3.63-4.54,5.72-9.1,6.29,4.07,2.57,7.21,6.15,9.43,10.75,2.22,4.6,3.33,10.18,3.33,16.75,0,9.13-2.11,16.25-6.33,21.35-4.22,5.1-10.12,8.18-17.69,9.24,6.38,1,11.56,2.99,15.53,5.96ZM593.04,994.2c-2.06,4.26-3.1,10.86-3.1,19.8s1.02,15.23,3.05,19.24c2.03,4,5.24,6.01,9.62,6.01,3.82,0,6.88-2.08,9.2-6.24s3.47-10.49,3.47-19-1.16-15.15-3.47-19.57c-2.31-4.41-5.38-6.62-9.2-6.62-4.32,0-7.51,2.13-9.57,6.38Z"/>
      <path class="cls-9" d="M700.29,1009.78v-41.38h17.83v85.58h-17.83v-37.44h-20.83v37.44h-17.83v-85.58h17.83v41.38h20.83Z"/>
      <path class="cls-9" d="M783.8,1030.8l1.88,12.48c-1.06,2-2.99,3.93-5.77,5.77-2.78,1.85-6.1,3.35-9.95,4.5-3.85,1.16-7.74,1.74-11.68,1.74-6.32,0-12.06-1.44-17.22-4.32-5.16-2.88-9.24-7.18-12.24-12.9-3-5.72-4.5-12.68-4.5-20.88,0-7.26,1.49-13.57,4.46-18.95,2.97-5.38,7.08-9.51,12.34-12.39,5.25-2.88,11.23-4.32,17.92-4.32,5.94,0,10.9.91,14.87,2.72,3.97,1.82,6.93,4.21,8.87,7.18,1.94,2.97,2.91,6.24,2.91,9.81,0,5.75-1.83,10.92-5.49,15.48-3.66,4.57-8.57,8.15-14.73,10.74-6.16,2.6-12.87,3.89-20.13,3.89h-1.5c1.44,5.57,3.64,9.85,6.62,12.85,2.97,3,6.27,4.5,9.9,4.5s7.07-1.53,10.32-4.6c3.25-3.07,5.88-7.51,7.88-13.32h5.25ZM750.96,991.29c-2.63,2.38-4.75,5.8-6.38,10.28-1.63,4.47-2.44,9.68-2.44,15.62,0,3.38.22,6.38.66,9.01,6.44-.19,11.7-1.45,15.76-3.8,4.07-2.35,7.01-5.29,8.82-8.82,1.81-3.53,2.72-7.27,2.72-11.21,0-5-1.02-8.69-3.05-11.07-2.03-2.37-4.58-3.57-7.65-3.57s-5.82,1.19-8.44,3.57Z"/>
      <path class="cls-9" d="M838.45,985.48c3.72,2.57,5.58,6.32,5.58,11.26v57.24h-17.83v-7.6c-2.19,3.07-4.71,5.32-7.55,6.76s-5.77,2.16-8.77,2.16c-6.69,0-11.93-1.78-15.72-5.35-3.78-3.57-5.68-8.63-5.68-15.2s1.17-11.28,3.52-14.87c2.35-3.6,5.21-6.19,8.59-7.79,3.38-1.6,7.85-3.17,13.42-4.74,2.75-.81,5.07-1.53,6.94-2.16,1.88-.63,3.63-1.34,5.25-2.16v-6.38c0-2.56-.61-4.52-1.83-5.87-1.22-1.34-2.83-2.02-4.83-2.02-1.88,0-3.85.6-5.91,1.78-2.06,1.19-3.96,2.88-5.68,5.07-1.72,2.19-2.99,4.75-3.8,7.69h-4.88l-1.88-12.2c3.69-3,7.93-5.33,12.71-6.99,4.79-1.66,9.49-2.49,14.12-2.49,5.75,0,10.49,1.28,14.22,3.85ZM820.53,1044.5c2.03-1.5,3.93-3.6,5.68-6.29v-30.21c-1.44.81-3.44,1.81-6.01,3-3.5,1.69-6.15,3.21-7.93,4.55-1.78,1.34-3.22,3.39-4.32,6.15-1.09,2.75-1.64,6.63-1.64,11.63,0,4.25.77,7.55,2.3,9.9,1.53,2.35,3.52,3.52,5.96,3.52,1.94,0,3.93-.75,5.96-2.25Z"/>
      <path class="cls-9" d="M855.1,1053.97v-71.03h17.83v22.71c1.25-1.13,2.41-2.38,3.47-3.75s2.28-3.07,3.66-5.07c2.06-3.07,3.91-5.52,5.54-7.37,1.63-1.84,3.74-3.39,6.33-4.64,2.6-1.25,5.77-1.88,9.52-1.88v14.55c-4.25,0-9.05,1.19-14.4,3.57-5.35,2.38-10.06,6.54-14.12,12.48v40.44h-17.83Z"/>
      <path class="cls-9" d="M922.1,1052.71c-3.5-1.66-6.33-4.1-8.49-7.32-2.16-3.22-3.24-7.02-3.24-11.4v-44.29h-5.63v-6.76h5.63c1.19-.75,2.64-2.47,4.36-5.16,1.72-2.69,3.21-5.57,4.46-8.63,1.25-3.06,1.88-5.47,1.88-7.22h7.04l.09,21.02h16.04v6.76h-16.04v42.13c0,5.63.69,9.87,2.06,12.71s3.13,4.27,5.25,4.27c1.5,0,3.05-.77,4.64-2.3,1.6-1.53,3-3.72,4.22-6.57,1.22-2.85,2.08-6.18,2.58-9.99h4.88l1.88,14.54c-2.31,3.5-5.29,6.16-8.91,7.98-3.63,1.81-7.48,2.72-11.54,2.72s-7.66-.83-11.17-2.49Z"/>
      <path class="cls-9" d="M957.19,1051.68c-4.63-2.28-8.07-5.55-10.32-9.81l1.88-11.92h5.91c1.13,4.13,2.77,7.66,4.93,10.6,2.16,2.94,4.52,5.16,7.08,6.66,2.56,1.5,5.07,2.25,7.51,2.25,2.81,0,5.13-.89,6.94-2.67s2.66-4.27,2.53-7.46c-.06-2.31-.83-4.46-2.3-6.43-1.47-1.97-3.28-3.72-5.44-5.25-2.16-1.53-5.08-3.42-8.77-5.68-4.13-2.5-7.4-4.63-9.81-6.38-2.41-1.75-4.54-3.82-6.38-6.19-1.85-2.38-2.96-5.04-3.33-7.98-.13-1-.19-1.75-.19-2.25,0-3.69,1.08-6.87,3.24-9.53,2.16-2.66,5-4.66,8.54-6.01,3.53-1.34,7.33-2.02,11.4-2.02,5.13,0,9.99,1.02,14.59,3.05,4.6,2.04,8.09,4.9,10.46,8.59l-1.88,10.32h-6.19c-1-3.44-2.55-6.4-4.64-8.87-2.1-2.47-4.39-4.33-6.9-5.58-2.5-1.25-4.91-1.88-7.22-1.88s-4.1.6-5.54,1.78c-1.44,1.19-2.16,2.85-2.16,4.97s1.11,4.12,3.33,5.96c2.22,1.85,5.8,4.27,10.74,7.27,4.69,2.81,8.57,5.35,11.63,7.6,3.07,2.25,5.71,4.94,7.93,8.07,2.22,3.13,3.36,6.63,3.42,10.51v.75c0,.75-.03,1.31-.09,1.69-.38,4.13-1.83,7.63-4.36,10.51-2.53,2.88-5.69,5.05-9.48,6.52-3.78,1.47-7.8,2.21-12.06,2.21-5.38,0-10.38-1.14-15.01-3.42Z"/>
    </g>
    <g>
      <path class="cls-9" d="M1067.2,1009.78v-41.38h17.83v85.57h-17.83v-37.44h-20.83v37.44h-17.83v-85.57h17.83v41.38h20.83Z"/>
      <path class="cls-9" d="M1150.71,1030.8l1.88,12.48c-1.06,2-2.99,3.93-5.77,5.77s-6.1,3.35-9.95,4.5c-3.85,1.16-7.74,1.74-11.68,1.74-6.32,0-12.06-1.44-17.22-4.32-5.16-2.88-9.24-7.18-12.24-12.9-3-5.72-4.5-12.68-4.5-20.88,0-7.26,1.48-13.57,4.45-18.95,2.97-5.38,7.09-9.51,12.34-12.39,5.25-2.88,11.23-4.32,17.92-4.32,5.94,0,10.9.91,14.87,2.72s6.93,4.21,8.87,7.18c1.94,2.97,2.91,6.24,2.91,9.81,0,5.75-1.83,10.92-5.49,15.48-3.66,4.57-8.57,8.15-14.73,10.74-6.16,2.6-12.87,3.89-20.12,3.89h-1.5c1.44,5.57,3.64,9.85,6.61,12.85,2.97,3,6.27,4.5,9.9,4.5s7.07-1.53,10.32-4.6c3.25-3.07,5.88-7.51,7.88-13.32h5.25ZM1117.87,991.29c-2.63,2.38-4.75,5.8-6.38,10.27-1.63,4.47-2.44,9.68-2.44,15.62,0,3.38.22,6.38.66,9.01,6.44-.19,11.7-1.45,15.76-3.8,4.07-2.35,7.01-5.29,8.82-8.82,1.81-3.53,2.72-7.27,2.72-11.21,0-5-1.02-8.69-3.05-11.07-2.03-2.38-4.58-3.57-7.64-3.57s-5.82,1.19-8.44,3.57Z"/>
      <path class="cls-9" d="M1177.92,1053.97h-17.83v-85.57h17.83v85.57Z"/>
      <path class="cls-9" d="M1188.06,1074.05v-91.11h17.83v10.98c2.25-4.13,4.91-7.26,7.98-9.38,3.07-2.13,6.22-3.19,9.48-3.19,4.88,0,9.07,1.31,12.57,3.94,3.5,2.63,6.19,6.36,8.07,11.21,1.88,4.85,2.81,10.56,2.81,17.12,0,9.01-1.27,16.61-3.8,22.8-2.53,6.19-6.01,10.82-10.42,13.89-4.41,3.07-9.4,4.6-14.96,4.6-2.13,0-4.21-.44-6.24-1.31-2.03-.88-3.86-2.16-5.49-3.85v24.3h-17.83ZM1221.79,1042.67c2.22-2.47,3.97-6.05,5.25-10.74,1.28-4.69,1.93-10.2,1.93-16.51,0-4.88-.47-9.02-1.41-12.43-.94-3.41-2.22-5.97-3.85-7.69-1.63-1.72-3.44-2.58-5.44-2.58-2.19,0-4.38.99-6.57,2.96-2.19,1.97-4.13,4.93-5.82,8.87v37.34c2.75,3,5.57,4.5,8.44,4.5s5.24-1.24,7.46-3.71Z"/>
      <path class="cls-9" d="M1258.8,974.83c-1.94-1.91-2.91-4.21-2.91-6.9s.97-5.08,2.91-6.99c1.94-1.91,4.25-2.86,6.94-2.86s4.99.97,6.9,2.91c1.91,1.94,2.86,4.25,2.86,6.94s-.95,4.91-2.86,6.85c-1.91,1.94-4.21,2.91-6.9,2.91s-5-.95-6.94-2.86ZM1274.66,1053.97h-17.83v-71.03h17.83v71.03Z"/>
      <path class="cls-9" d="M1341.93,1053.97h-17.83v-54.7c0-2.88-.45-5.02-1.36-6.43-.91-1.41-2.14-2.11-3.71-2.11-2.19,0-4.74,1.2-7.64,3.61-2.91,2.41-5.68,5.52-8.31,9.34v50.29h-17.83v-71.03h17.83v11.73c3.25-4.13,7.01-7.35,11.26-9.66,4.25-2.31,8.35-3.47,12.29-3.47,4.5,0,8.16,1.52,10.98,4.55,2.81,3.03,4.22,7.52,4.22,13.46l.09,54.42Z"/>
      <path class="cls-9" d="M1400.25,1050.55c3.97,2.97,5.96,6.93,5.96,11.87,0,3.07-1.06,5.93-3.19,8.59-2.13,2.66-5.27,4.82-9.43,6.47-4.16,1.66-9.15,2.49-14.97,2.49-5.19,0-9.74-.61-13.65-1.83-3.91-1.22-6.99-2.63-9.24-4.22s-3.78-3.02-4.6-4.27l1.31-15.01h4.6c1,4.07,2.56,7.49,4.69,10.27,2.13,2.78,4.52,4.85,7.18,6.19s5.33,2.02,8.02,2.02c3.38,0,6.19-.97,8.44-2.91s3.38-4.6,3.38-7.98c0-3.82-1.56-6.65-4.69-8.49-3.13-1.85-7.41-2.77-12.85-2.77-2.06,0-4.57.16-7.51.47v-6.76c1.5-.25,3.07-.44,4.69-.56-6.82-1.5-11.96-4.72-15.43-9.66s-5.21-11.76-5.21-20.45c0-10.7,2.58-18.7,7.74-24.02,5.16-5.32,12.74-7.98,22.75-7.98,4.07,0,7.85.53,11.35,1.6,2.25-1.19,4.15-2.89,5.68-5.11,1.53-2.22,2.3-4.36,2.3-6.43h3.66l3.85,8.16c-1.5,3.63-4.54,5.72-9.1,6.29,4.07,2.56,7.21,6.15,9.43,10.74,2.22,4.6,3.33,10.18,3.33,16.75,0,9.13-2.11,16.25-6.33,21.35-4.22,5.1-10.12,8.18-17.69,9.24,6.38,1,11.56,2.99,15.53,5.96ZM1368.68,994.2c-2.06,4.25-3.1,10.85-3.1,19.8s1.02,15.23,3.05,19.24c2.03,4,5.24,6.01,9.62,6.01,3.82,0,6.88-2.08,9.2-6.24,2.31-4.16,3.47-10.49,3.47-19s-1.16-15.15-3.47-19.56c-2.31-4.41-5.38-6.62-9.2-6.62-4.32,0-7.51,2.13-9.57,6.38Z"/>
      <path class="cls-9" d="M1475.92,1009.78v-41.38h17.83v85.57h-17.83v-37.44h-20.83v37.44h-17.83v-85.57h17.83v41.38h20.83Z"/>
      <path class="cls-9" d="M1552.63,985.48c3.72,2.56,5.58,6.32,5.58,11.26v57.24h-17.83v-7.6c-2.19,3.07-4.7,5.32-7.55,6.76-2.85,1.44-5.77,2.16-8.78,2.16-6.69,0-11.93-1.78-15.71-5.35-3.78-3.57-5.68-8.63-5.68-15.2s1.18-11.28,3.52-14.87c2.35-3.6,5.21-6.19,8.58-7.79s7.85-3.17,13.42-4.74c2.75-.81,5.07-1.53,6.94-2.16,1.88-.63,3.63-1.34,5.25-2.16v-6.38c0-2.56-.61-4.52-1.83-5.86-1.22-1.34-2.83-2.02-4.83-2.02-1.88,0-3.85.59-5.91,1.78s-3.95,2.88-5.67,5.07-2.99,4.75-3.8,7.69h-4.88l-1.88-12.2c3.69-3,7.93-5.33,12.72-6.99,4.79-1.66,9.49-2.49,14.12-2.49,5.75,0,10.5,1.28,14.22,3.85ZM1534.71,1044.5c2.03-1.5,3.92-3.6,5.67-6.29v-30.21c-1.44.81-3.44,1.81-6.01,3-3.5,1.69-6.14,3.21-7.93,4.55-1.78,1.34-3.22,3.39-4.32,6.15-1.09,2.75-1.64,6.63-1.64,11.63,0,4.25.77,7.55,2.3,9.9s3.52,3.52,5.96,3.52c1.94,0,3.93-.75,5.96-2.25Z"/>
      <path class="cls-9" d="M1625.96,1053.97h-17.83v-54.7c0-2.88-.45-5.02-1.36-6.43-.91-1.41-2.14-2.11-3.71-2.11-2.19,0-4.74,1.2-7.64,3.61-2.91,2.41-5.68,5.52-8.31,9.34v50.29h-17.83v-71.03h17.83v11.73c3.25-4.13,7.01-7.35,11.26-9.66,4.25-2.31,8.35-3.47,12.29-3.47,4.5,0,8.16,1.52,10.98,4.55,2.81,3.03,4.22,7.52,4.22,13.46l.09,54.42Z"/>
      <path class="cls-9" d="M1673.9,968.4h17.83v85.57h-17.73v-5.82c-2.31,2.31-4.88,4.08-7.69,5.3-2.81,1.22-5.69,1.83-8.63,1.83-4.19,0-8.09-1.3-11.68-3.89-3.6-2.6-6.51-6.6-8.73-12.01-2.22-5.41-3.33-12.12-3.33-20.13s1.36-15.12,4.08-20.97c2.72-5.85,6.32-10.26,10.79-13.23,4.47-2.97,9.37-4.46,14.69-4.46,3.5,0,6.97.66,10.42,1.97v-14.17ZM1668.13,1044.73c2.03-1.22,3.99-2.86,5.87-4.93l-.09-49.64c-3.32-1.31-6.22-1.97-8.73-1.97-4.82,0-8.41,2.52-10.79,7.55s-3.57,12.87-3.57,23.5c0,9.57,1.06,16.51,3.19,20.83,2.13,4.32,4.88,6.47,8.26,6.47,1.88,0,3.83-.61,5.86-1.83Z"/>
      <path class="cls-9" d="M1709,1051.67c-4.63-2.28-8.07-5.55-10.32-9.81l1.88-11.92h5.91c1.13,4.13,2.77,7.66,4.92,10.6,2.16,2.94,4.52,5.16,7.09,6.66,2.56,1.5,5.07,2.25,7.51,2.25,2.81,0,5.13-.89,6.94-2.67s2.66-4.27,2.53-7.46c-.06-2.31-.83-4.46-2.3-6.43-1.47-1.97-3.28-3.72-5.44-5.25-2.16-1.53-5.08-3.42-8.77-5.68-4.13-2.5-7.4-4.63-9.81-6.38-2.41-1.75-4.54-3.82-6.38-6.19-1.85-2.38-2.95-5.04-3.33-7.98-.13-1-.19-1.75-.19-2.25,0-3.69,1.08-6.87,3.23-9.52,2.16-2.66,5-4.66,8.54-6.01,3.53-1.34,7.34-2.02,11.4-2.02,5.13,0,9.99,1.02,14.59,3.05,4.6,2.03,8.09,4.89,10.46,8.59l-1.88,10.32h-6.19c-1-3.44-2.55-6.4-4.65-8.87-2.1-2.47-4.39-4.33-6.89-5.58s-4.91-1.88-7.22-1.88-4.1.59-5.54,1.78c-1.44,1.19-2.16,2.85-2.16,4.97s1.11,4.11,3.33,5.96c2.22,1.85,5.8,4.27,10.75,7.27,4.69,2.81,8.57,5.35,11.63,7.6,3.07,2.25,5.71,4.94,7.93,8.07,2.22,3.13,3.36,6.63,3.43,10.51v.75c0,.75-.03,1.31-.09,1.69-.38,4.13-1.83,7.63-4.37,10.51-2.53,2.88-5.69,5.05-9.48,6.52-3.78,1.47-7.8,2.21-12.05,2.21-5.38,0-10.38-1.14-15.01-3.42Z"/>
    </g>
  </g>
  <g>
    <g>
      <path class="cls-8" d="M1303.26,853.1c1.97-.14,4.35-1.62,6.2-1.75.37-.03,1.05.39,1.56.35,2.22-.23,7.39-1.36,8.87-2.63.83-.74.74-1.89,1.35-2.79,1.94-3.03,8.8-4.28,1.06-10.89-3.37-2.72-6.13-2.52-9.1-2.37.63-.3,1.27-.6,1.9-.9-.18-.92-.67-1.04-1.61-1.34,1.58-1.82-.12-2.87-2.44-4.89,1.58-1.55-.18-1.96-1.52-3.85-.35-.51-1.56-2.49-1.67-2.86-.22-.82.48-.82.51-1.42.07-1.21-2.15-2.7-1.78-4.04-1.8-1.5-11.39-3.91-13.93-4.01-7.3-.75-14.8,2.83-15.43,7.39-.18,1.17.65,3.06.42,3.96-.38,1.46-2.79,3.66-3.4,5.31-1.95,5.28,2.41,7.97,6.94,11.87,4.41,3.73,9.19,8.02,13.55,11.37,2.45,1.85,5.54,3.7,8.51,3.5ZM1293.79,831.58c.62.18,1.24.36,1.86.55-.47-.49-.95-.97-1.43-1.46,1.59-.95,3.82.37,5.87.75,1.47.27,2.83.22,4.26.51,2.05.41,4.39,1.52,6.61,1.56-1.19.47-1.03,2.39-1.72,2.92-.77.59-3.55.33-4.59,1-.75.47-1.51,1.97-2.17,1.9-2.14-.23-6.19-6.57-8.69-7.74Z"/>
      <path class="cls-8" d="M1329.84,856.69c-4.62-4.61-5.63.44-2.2,4.08.97,1.05,2.74,1.95,3.37,2.91.67,1.01,1.29,3.76,1.98,5.13.91,1.79,2.2,3.4,2.99,5.18.82,1.86.82,3.9,1.69,6.07,1.18,2.85,3.1,6.96,5.58,5.03,1.15-.9.55-4.25-.14-6-.82-2.15-2.11-3.56-2.94-5.15-.92-1.75-1.33-3.89-2.6-5.89-1.09-1.76-4.28-4.61-4.92-5.54-.74-1.08.12-2.73-2.81-5.82Z"/>
      <path class="cls-8" d="M1333.8,844.71c-7.19-4.91-5.31,1.56-.5,5.47,1.28,1.06,3.47,1.73,4.58,2.92.85.91,1.22,2.33,2.05,3.47,1.36,1.84,4.07,4.29,4.97,5.67.99,1.47,1.46,3.67,2.74,5.79,1.63,2.62,4.4,6.65,6.14,4.46,1.36-1.72-1.6-6.98-3.13-9.17-4.6-6.91-11.01-12.98-16.84-18.61Z"/>
      <path class="cls-8" d="M1316.23,860.52c.6,1.23,1.61,1.95,2.21,3.08,2.59,4.9,4.15,10.18,5.81,15.26,3.58,5.95,7.76,2.28,4.35-3.71-2.17-3.54-3.14-4.85-5.39-8.51-.64-1.05-2.78-3.15-3.01-3.89-.06-.2.25-.68.13-1.18-1.62-6.21-5.81-4.32-4.12-1.05Z"/>
      <path class="cls-8" d="M1307.45,877.07c3.18.75,2.45-3.81,1.82-5.66-.82-2.68-2.48-5.78-3.24-8.57-.32-1.19.04-2.04-.34-3.06-.19-.61-2.27-3.97-2.76-3.98-.26,1.09-.72,2.54-.51,3.7.22,1.19,1.17,2.24,1.42,3.27.24,1-.19,1.99-.11,2.86.14,1.44.92,2.97,1.09,4.24.05.4-.29,1.11-.23,1.81.21,1.92.61,4.89,2.86,5.38Z"/>
      <path class="cls-8" d="M1314.58,817.46c6.99,2.86,13.6,5.92,14.97.21-2.52-5.75-17.99-5.89-18.63-2.38-.02.55,2.35,2.07,2.86,2.3.41.18.65-.19.8-.13Z"/>
    </g>
    <g>
      <path class="cls-3" d="M404.97,630.21c-2.28-3.17-7.59-5.92-9.89-8.68-.46-.55-.44-1.89-1.1-2.65-2.9-3.3-11.22-9.96-15.33-11.08-2.34-.64-4.27.27-6.62.02-7.92-.82-18.18-8.76-20.87,4.85-1.14,5.8,2.04,9.36,5.33,13.45l-3.63-2.25c-1.57.63-1.3,1.34-.95,2.76-5.07-1.45-5.34,1.27-7.18,5.09-4.47-1.66-3.63.87-6.25,3.18-.7.62-3.64,2.71-4.31,2.93-1.47.48-2.03-.46-3.26-.37-2.44.18-3.71,3.36-6.72,3.08-1.38,2.59-.19,15.3.6,18.63,2.26,9.5,11.77,19.99,21.69,21.51,2.55.39,6.39-.65,8.37-.26,3.25.65,8.58,4.44,12.24,5.55,11.74,3.53,16.84-3.32,23.24-11.69,6.16-8.06,12.24-18.03,15.47-27.46,1.79-5.24,2.59-11.85-.83-16.6ZM369.66,655.12l-.1-3-2.04,2.54c-2.98-2.2-1.81-5.87-2.62-9.06-.58-2.28-1.78-4.27-2.4-6.44-.89-3.13-.85-6.93-2.91-10.1,2.06,1.5,5.61.46,7.31,1.21,1.9.84,3.97,5.05,6.2,6.35,1.6.93,5.22,1.45,5.67,2.49,1.52,3.56-8.19,12.06-9.11,16.01Z"/>
      <path class="cls-3" d="M378.02,588.6c-.96,9.71,8.85,7.18,9.72-.69.25-2.22-1.05-5.31-.57-7,.51-1.79,3.59-5.24,4.43-7.5,1.09-2.95,1.15-6.16,2.18-8.99,1.08-2.96,3.7-5.26,4.8-8.75,1.46-4.61,2.36-11.59-4.4-11.64-3.1-.02-5.68,4.4-6.55,7.04-1.06,3.21-.55,6.11-1.14,8.72-.65,2.88-2.8,5.54-3.48,8.97-.59,2.99.3,9.53-.15,11.2-.52,1.92-4.21,2.34-4.84,8.65Z"/>
      <path class="cls-3" d="M352.89,592.51c1.26,12.14,10.06,5.83,9.68-3.17-.1-2.37-2.25-5.55-2.07-7.78.14-1.71,1.74-3.28,2.15-5.17.67-3.1-.19-8.26.18-10.45.4-2.37,2.59-4.87,3.1-8.22.64-4.19.37-10.91-5.36-10.46-4.39.35-5.54,8.06-5.94,11.56-1.21,10.78-.39,22.77-1.75,33.7Z"/>
      <path class="cls-3" d="M403.31,603.93c1.33-2,1.16-4.15,2.21-6.1,4.54-8.44,10.24-16.46,14.64-25.02,1.98-12.21-10.04-11.98-12.4-.96-1.45,6.76-1.87,9.46-4.19,16.28-.66,1.93-.99,6.98-1.92,7.99-.24.27-1.48.29-2.14.92-8.16,7.78.27,12.21,3.81,6.89Z"/>
      <path class="cls-3" d="M443.33,599.34c-3.28-6.05-9.72,1.07-12.06,4.1-3.43,4.45-6.84,10.42-11.06,14.28-1.79,1.64-3.78,1.79-5.24,3.31-.85.89-4.94,7-4.5,7.79,2.35-.39,5.6-.73,7.58-2.06,2.04-1.37,2.96-3.92,4.58-5.29,1.57-1.33,3.9-1.55,5.41-2.57,2.49-1.68,4.31-4.63,6.35-6.35.64-.54,2.35-.75,3.51-1.69,3.14-2.54,7.79-7.16,5.43-11.52Z"/>
      <path class="cls-3" d="M325.03,629.44c-.62-9.73-2.58-18.98-14.61-18.6-7.32,4.67,6.39,23.4,13.49,23.8,1.14-.08,2.1-3.49,2.08-4.21-.01-.57-.96-.79-.97-1Z"/>
    </g>
    <g>
      <path class="cls-8" d="M1218.63,344.83c-2.54,1.22-5.16,4.66-7.4,5.95-.45.26-1.4.08-2.02.45-2.7,1.65-8.48,6.73-9.79,9.5-.74,1.58-.34,3.07-.81,4.7-1.57,5.53-8.49,11.83.84,15.43,3.98,1.54,6.9-.28,10.22-2.1l-2.05,2.3c.25,1.2.79,1.09,1.84,1.02-1.66,3.42.24,3.95,2.72,5.73-1.74,2.97.16,2.69,1.48,4.84.35.57,1.47,2.92,1.54,3.43.16,1.1-.58,1.38-.67,2.27-.18,1.76,1.93,3.06,1.35,5.16,1.67,1.31,10.85,2.04,13.31,1.9,7.03-.42,15.67-5.87,17.99-12.72.6-1.76.33-4.62.86-5.98.87-2.23,4.23-5.54,5.47-8,3.97-7.9-.25-12.38-5.4-17.97-4.96-5.38-11.28-10.95-17.58-14.42-3.5-1.93-8.1-3.32-11.9-1.49ZM1231.91,373.03l-2.14-.3,1.55,1.77c-1.93,1.84-4.39.55-6.76.73-1.69.13-3.25.73-4.88.9-2.33.24-5.03-.26-7.54.8,1.32-1.28,1.03-3.93,1.78-5.04.83-1.25,4.08-2.19,5.29-3.61.86-1.02,1.68-3.53,2.48-3.72,2.72-.64,7.54,7.33,10.23,8.48Z"/>
      <path class="cls-8" d="M1185.7,358.78c6.78,1.9,6.21-5.39.72-6.99-1.55-.45-3.91.08-5.05-.47-1.21-.59-3.27-3.21-4.77-4.08-1.96-1.14-4.23-1.59-6.12-2.68-1.97-1.13-3.28-3.28-5.61-4.5-3.09-1.61-7.94-3.13-8.82,1.67-.4,2.2,2.42,4.59,4.18,5.54,2.15,1.16,4.27,1.16,6.05,1.9,1.96.82,3.59,2.68,5.94,3.59,2.05.79,6.81.98,7.94,1.51,1.3.61,1.14,3.29,5.54,4.52Z"/>
      <path class="cls-8" d="M1185.34,377.12c8.78.62,5.4-6.42-1.04-7.28-1.7-.23-4.22.9-5.79.5-1.2-.31-2.11-1.65-3.41-2.17-2.12-.87-5.89-.9-7.4-1.44-1.63-.58-3.14-2.45-5.46-3.23-2.9-.98-7.71-1.63-8.1,2.5-.3,3.16,5.04,4.95,7.47,5.66,7.51,2.21,16.13,3.12,23.72,5.46Z"/>
      <path class="cls-8" d="M1199.75,342.72c-1.26-1.2-2.81-1.34-4.06-2.33-5.43-4.28-10.42-9.34-15.95-13.52-8.43-2.94-9.77,5.64-2.23,8.69,4.62,1.88,6.49,2.51,11.05,5.01,1.29.71,4.83,1.58,5.44,2.36.16.21.02,1.09.38,1.63,4.51,6.77,8.71,1.33,5.37-1.84Z"/>
      <path class="cls-8" d="M1201.49,313.71c-4.71,1.57-.46,7.04,1.41,9.08,2.73,2.99,6.55,6.16,8.77,9.65.94,1.48.8,2.91,1.69,4.14.52.72,4.36,4.38,4.97,4.17.02-1.72.18-4.07-.52-5.64-.72-1.62-2.41-2.59-3.19-3.91-.75-1.28-.61-2.97-1.15-4.17-.88-1.98-2.75-3.64-3.72-5.31-.3-.52-.24-1.77-.76-2.71-1.42-2.55-4.11-6.43-7.5-5.3Z"/>
      <path class="cls-8" d="M1208.09,401.53c-6.99-.78-13.81-.54-15.04,8.05,2.4,5.78,17.42-1.62,18.6-6.61.09-.82-2.22-1.93-2.73-2.01-.41-.06-.68.58-.83.56Z"/>
    </g>
    <g>
      <path class="cls-6" d="M906.06,699.21c.24,5.07,3.59,11.74,3.81,16.63.05.96-.95,2.56-.87,3.91.47,5.84,2.87,20.04,5.5,24.8,1.55,2.66,4.03,3.13,5.89,5.36,6.43,7.24,7.52,27.36,22.53,11.26,6.35-7.07,6.7-14.93,7.1-23.3.49,2.01.96,4.04,1.42,6.09,1.98.36,2.35-.89,3.25-3.23,3.39,6.14,6,2.44,10.98-1.94,2.7,6.07,4.11,1.58,8.53-.02,1.18-.41,5.73-1.46,6.54-1.3,1.78.38,1.49,2.34,2.71,3.18,2.41,1.69,6.41-2.6,8.95.28,3.75-3.12,13.3-26.21,14.89-32.84,5.31-18.73,1.83-43.97-8.29-51.42-2.56-1.97-7.34-2-9.3-3.63-3.18-2.7-7.13-11.51-10.74-14.77-11.6-10.41-20.46-.44-31.68,9.37-10.83,9.64-22.77,20.61-31.73,30.83-4.97,5.76-9.81,13.13-9.48,20.74ZM958.66,686.29c-.62,1.53-1.24,3.05-1.87,4.57,1.27-.87,2.54-1.75,3.8-2.64,1.64,5.11-2.09,10-3.55,15.24-1.04,3.76-1.32,7.5-2.35,11.12-1.49,5.22-4.5,10.68-5.14,16.73-.72-3.68-4.93-4.82-5.97-7.1-1.14-2.54.05-9.87-1.22-13.17-.89-2.38-4.14-5.43-3.86-7.13.94-5.68,16.61-12,20.16-17.64Z"/>
      <path class="cls-6" d="M898.29,767.36c9.58-10.18-1.15-15.54-8.61-7.92-2.12,2.12-3.8,6.49-5.71,7.78-2.01,1.37-7.53,1.95-10.2,3.3-3.48,1.79-6.43,4.7-9.78,6.24-3.49,1.6-7.49,1-11.44,2.77-5.23,2.41-12.14,6.66-7.84,13.93,1.96,3.37,7.92,2.58,11.07,1.22,3.83-1.62,6.28-4.72,9.17-6.47,3.19-1.94,7.28-2.26,11.04-4.93,3.3-2.3,8.68-9.77,10.54-11.1,2.15-1.54,5.49,1.56,11.76-4.82Z"/>
      <path class="cls-6" d="M922.06,786.2c10.97-16.75-2.48-16.39-10.72-5.36-2.2,2.9-3.71,8.71-6.12,11.12-1.83,1.83-4.6,2.02-6.82,3.7-3.62,2.78-8.35,9.21-10.93,11.11-2.76,2.06-6.85,2.3-10.73,5.05-4.84,3.49-11.87,9.96-8.07,16.1,2.91,4.79,12.33-1.5,16.45-4.8,12.81-9.91,24.99-24.52,36.93-36.92Z"/>
      <path class="cls-6" d="M889.05,729.81c-2.74,1.12-4.22,3.48-6.67,4.65-10.59,5.06-21.79,7.73-32.08,10.89-11.03,7.7-1.76,18.89,9.37,11.72,6.77-4.64,9.32-6.74,16.81-11.38,2.13-1.31,6.43-6.11,8.05-6.44.43-.08,1.54.88,2.62.75,13.55-1.86,9.25-13.43,1.9-10.18Z"/>
      <path class="cls-6" d="M848.04,706.26c-.72,7.09,10,5.66,14.31,4.34,6.25-1.72,13.52-5.35,20.24-6.78,2.86-.6,4.93.47,7.39-.27,1.43-.37,9.55-4.75,9.6-5.97-2.64-.94-6.16-2.41-9.01-2.08-2.93.34-5.48,2.52-7.98,2.98-2.43.45-4.91-.7-7.08-.56-3.56.23-7.24,2-10.35,2.36-.97.11-2.82-.71-4.56-.55-4.73.47-12.12,1.51-12.56,6.53Z"/>
      <path class="cls-6" d="M981.45,758.58c-8.62,16.32-16.67,31.82-6.97,43.28,11.53,0,19.66-44.57,12.83-50.85-1.1-.8-5.12,3.97-5.78,5.13-.52.93.11,2.1-.08,2.44Z"/>
    </g>
    <g>
      <path class="cls-4" d="M1291.1,259.98c-5.48-3.21-10.93-10.79-16.22-13.87-1.04-.61-3.38-.43-4.84-1.31-6.2-3.9-20.54-14.81-24.29-20.48-2.05-3.26-1.13-6.28-2.52-9.64-4.3-11.33-25.96-24.2.59-31.49,11.52-2.93,20.43,1.23,29.94,5.64-1.95-1.71-3.92-3.41-5.93-5.1.75-2.4,2.36-2.09,5.47-1.72-4.84-7.32.77-8.06,8.52-11.04-5.16-6.51.64-5.47,4.97-9.44,1.14-1.07,4.94-5.5,5.23-6.5.62-2.2-1.73-3.01-1.96-4.85-.47-3.65,6.59-5.59,4.89-10.08,5.63-2.35,36.76.46,45.02,2.55,23.84,4.98,49.79,23.48,52.17,39.02.69,3.98-2.04,9.29-1.37,12.41,1.15,5.09,8.62,14.58,10.14,20.48,4.81,18.9-11.38,22.93-28.76,29.68-16.97,6.41-36.05,13.28-52.57,17.28-9.27,2.17-20.24,3.26-28.49-1.53ZM1335.94,209.2c-2.05-.21-4.1-.4-6.15-.58,1.7-.9,3.41-1.8,5.13-2.68-4.71-4.78-12.3-3.49-18.95-4.91-4.77-1.02-9.07-2.89-13.69-3.84-6.65-1.38-14.44-1.21-21.52-4.02,3.66,2.94,2.48,8.26,4.4,10.73,2.16,2.74,10.97,5.67,13.89,9,2.12,2.36,3.61,7.73,5.66,8.41,6.84,2.25,22.93-11.45,31.24-12.11Z"/>
      <path class="cls-4" d="M1211.07,229.06c16.84-4.71,16.56,10.29,3.79,14.14-3.58,1.12-9.4.44-11.93,1.81-2.69,1.43-6.53,7.22-9.57,9.38-4,2.82-8.94,4.4-12.59,7.21-3.8,2.95-5.46,7.72-9.71,11.06-5.7,4.4-14.43,9.59-19.99.61-2.6-4.12,1.73-10.27,5.06-12.97,4.02-3.31,8.87-4.22,12.49-6.41,4-2.41,6.73-6.76,11.87-9.37,4.46-2.32,15.86-3.96,18.41-5.24,2.95-1.49,1.45-6.99,12.16-10.23Z"/>
      <path class="cls-4" d="M1203.99,191.8c24.92-2.45,16.73,12.25-.27,14.99-4.49.76-11.81-.94-15.87.33-3.1.97-4.9,3.93-8.06,5.41-5.18,2.39-15.05,3.91-18.66,5.66-3.89,1.87-6.52,6.26-11.81,8.96-6.67,3.34-17.92,7.37-22.53-.39-3.62-6,8.82-12.79,14.86-15.45,18.41-8.45,41.67-13.46,62.34-19.51Z"/>
      <path class="cls-4" d="M1247.32,261.09c-2.83,2.38-6.3,2.65-9.02,4.69-11.75,8.8-21.2,19.67-30.68,29.23-14.93,7.76-21.95-9.01-7.55-17.18,9.07-4.81,12.88-6.42,22.37-12.02,2.69-1.6,10.5-3.58,11.81-5.18.34-.42-.08-2.22.69-3.34,9.92-13.94,20.25-2.46,12.39,3.81Z"/>
      <path class="cls-4" d="M1249.63,320.2c-8.28-3.31-.47-14.36,3.49-18.38,5.53-5.93,13.77-11.88,19.26-18.5,2.33-2.82,2.35-5.74,4.58-8.03,1.24-1.38,10.8-7.83,12.18-7.18-.49,3.47-.9,8.22-2.92,11.2-2.07,3.06-5.97,4.61-7.94,7.12-1.91,2.43-2.08,5.85-3.49,8.16-2.32,3.81-6.41,6.87-8.62,10.1-.69,1.01-.85,3.54-2.03,5.37-3.27,4.97-8.71,12.55-14.52,10.13Z"/>
      <path class="cls-4" d="M1269.05,142c-23.09.08-44.94.01-52-17.39,6.7-12.77,60.8,4.07,63.79,15.28.25,1.68-7.37,3.37-9.04,3.43-1.33.04-2.26-1.33-2.75-1.33Z"/>
    </g>
    <g>
      <path class="cls-1" d="M592.7,704.35c2.16-4,2.67-10.66,4.77-14.51.41-.76,1.91-1.52,2.47-2.6,2.34-4.69,7.06-16.68,7.25-21.55.04-2.75-1.64-4.26-2.04-6.83-1.58-8.52,6.89-24.44-12.06-19.04-8.13,2.48-12.04,8.34-16.22,14.57.56-1.77,1.13-3.54,1.73-5.32-1.35-1.19-2.22-.4-3.98.98.25-6.27-3.47-4.65-9.31-3.59.74-5.9-2.42-3.11-6.55-3.93-1.09-.23-5.06-1.53-5.61-2.03-1.19-1.11-.06-2.48-.6-3.69-1.07-2.41-6.11-.97-6.73-4.35-4.32.66-22.31,13.94-26.59,18.28-12.73,11.9-21.73,32.85-17.42,43.24,1.05,2.69,4.7,4.93,5.45,7.08,1.19,3.54.14,12.12,1.4,16.29,4.08,13.35,15.48,9.8,28.61,7.47,12.76-2.38,26.98-5.27,38.57-8.95,6.47-2.12,13.59-5.52,16.86-11.51ZM546.41,689.94c1.18-.89,2.36-1.77,3.55-2.64-1.37.08-2.75.17-4.13.27,1.11-4.68,6.23-6.7,9.77-10.04,2.54-2.4,4.48-5.14,6.95-7.44,3.56-3.31,8.38-6.1,11.67-10.45-1.15,3.16,1.55,5.97,1.29,8.2-.3,2.48-4.6,7.54-5.15,10.66-.42,2.23.66,6.07-.34,7.25-3.35,3.92-18.28,1.51-23.6,4.2Z"/>
      <path class="cls-1" d="M630.16,655.71c-12.05,3.38-6.3,12.44,2.93,10.05,2.6-.65,5.91-3.22,7.97-3.32,2.18-.12,6.67,1.99,9.34,2.19,3.49.24,7.1-.63,10.38-.26,3.42.39,6.21,2.7,10.05,3.16,5.12.57,12.39.51,12.45-7.05.06-3.49-4.87-5.64-7.92-6.05-3.69-.53-6.99.72-10.02.72-3.34,0-6.62-1.64-10.74-1.32-3.59.24-11.17,3.47-13.2,3.63-2.36.18-3.49-3.74-11.24-1.74Z"/>
      <path class="cls-1" d="M620.65,630.29c-16.15,7.76-5.68,13.71,5.73,9.06,3.03-1.2,6.87-4.96,9.83-5.69,2.25-.56,4.46.58,6.94.32,4.06-.46,10.66-3.2,13.51-3.46,3.07-.3,6.31,1.4,10.55,1.09,5.32-.44,13.7-2.15,13.63-8.61-.01-5.02-10.14-4.55-14.83-3.93-14.4,1.67-30.49,7.24-45.38,11.22Z"/>
      <path class="cls-1" d="M619.88,688.76c2.62.41,4.84-.72,7.26-.48,10.46,1.02,20.27,4.15,29.62,6.48,12.01-.8,10.08-13.66-1.76-13.31-7.34.43-10.26.85-18.14.95-2.24.02-7.75,1.71-9.15,1.22-.36-.13-.78-1.39-1.66-1.79-11.24-4.84-13.3,6.02-6.16,6.93Z"/>
      <path class="cls-1" d="M640.43,725.77c3.83-5.1-5.05-8.96-8.96-9.94-5.59-1.57-12.84-2.15-18.65-4.16-2.47-.86-3.57-2.64-5.79-3.21-1.27-.38-9.51-.78-10.12.13,1.59,1.94,3.61,4.69,5.94,5.76,2.4,1.1,5.36.6,7.5,1.4,2.07.77,3.44,2.81,5.16,3.7,2.83,1.47,6.47,1.82,9.02,2.98.8.36,1.83,1.85,3.24,2.53,3.85,1.82,9.99,4.44,12.64.8Z"/>
      <path class="cls-1" d="M562.37,624c14.15-8.52,27.49-16.68,25.35-29.95-8.84-5.32-35.68,25.07-33.34,33.04.47,1.12,5.76-.68,6.8-1.26.83-.47.89-1.66,1.19-1.84Z"/>
    </g>
    <path class="cls-4" d="M642.42,289.18c-.81-4.1.29-10.69,2.17-14.59.59-2.29,6.86-11.21,8.81-11.72,1.61-.76,2.97-1,5.26-1.05,3.43-.54,18.76,3.05,22.29,5.06,21.31,7.38,36.78,32.04,37.29,42.19,1.24,9.24-.99,6.59-6.14,3.6-5.09-3.46-13.1-7.26-22.16-11.23-5.17,4.52-10.57,9.81-17.19,13.7-5.34,3.61-11.06,1.64-17.23-3.91-5.92-5.43-12.28-14.45-13.11-22.04Z"/>
    <path class="cls-3" d="M1252.52,422.51c4.04,1.06,9.49,4.93,12.17,8.33,1.81,1.53,7.08,11.07,6.69,13.05-.02,1.78-.4,3.11-1.35,5.19-1.01,3.32-10.94,15.54-14.29,17.83-15.95,15.95-44.89,19.08-54.24,15.11-8.85-2.92-5.49-3.77-.56-7.1,5.34-3.07,12.25-8.61,19.78-15.02-1.81-6.62-4.2-13.8-4.81-21.45-.92-6.38,3.36-10.67,11.05-13.79,7.47-2.95,18.36-4.73,25.55-2.16Z"/>
    <path class="cls-5" d="M536.76,755.58c-.81-4.1.29-10.69,2.17-14.59.59-2.29,6.86-11.21,8.81-11.72,1.61-.76,2.97-1,5.26-1.05,3.43-.54,18.76,3.05,22.29,5.06,21.31,7.38,36.78,32.04,37.29,42.19,1.24,9.24-.99,6.59-6.14,3.6-5.09-3.46-13.1-7.26-22.16-11.23-5.17,4.52-10.57,9.81-17.19,13.7-5.34,3.61-11.06,1.64-17.23-3.91-5.92-5.43-12.28-14.45-13.11-22.04Z"/>
    <path class="cls-2" d="M1614.77,779.7c2.31,2.07,4.6,6.48,5.22,9.64.68,1.62.92,9.72,0,10.9-.62,1.17-1.32,1.92-2.66,2.97-1.8,1.85-12.51,6.56-15.51,6.94-15.96,5.13-36.16-2.62-41-8.43-4.86-4.94-2.35-4.36,2.04-4.88,4.57-.22,11.02-1.53,18.18-3.22,1.05-4.99,1.9-10.55,4.1-15.81,1.56-4.53,5.84-5.92,11.99-5.37,5.94.59,13.75,3.11,17.63,7.25Z"/>
    <path class="cls-1" d="M294.27,467.45c-2.93,1.27-8.03,1.52-11.25.75-1.81-.06-9.49-3.3-10.19-4.68-.83-1.08-1.23-2.05-1.64-3.76-.96-2.48-.77-14.51.16-17.47,2.04-17.12,17.95-32.68,25.45-34.71,6.7-2.43,5.08-.33,3.69,4-1.76,4.37-3.29,10.96-4.79,18.38,4.21,3.13,9.05,6.3,13.02,10.62,3.57,3.4,3.03,8-.12,13.51-3.1,5.3-8.8,11.52-14.33,13.37Z"/>
    <path class="cls-6" d="M677.02,754.59c-2.93,1.27-8.03,1.52-11.25.75-1.81-.06-9.49-3.3-10.19-4.68-.83-1.08-1.23-2.05-1.64-3.76-.96-2.48-.77-14.51.16-17.47,2.04-17.12,17.95-32.68,25.45-34.71,6.7-2.43,5.08-.33,3.69,4-1.76,4.37-3.29,10.96-4.79,18.38,4.21,3.13,9.05,6.3,13.02,10.62,3.57,3.4,3.03,8-.12,13.51-3.1,5.3-8.8,11.52-14.33,13.37Z"/>
    <path class="cls-1" d="M748.99,338.59c.85,1.96,1.01,5.37.49,7.52-.04,1.21-2.21,6.33-3.13,6.8-.72.55-1.37.82-2.51,1.09-1.65.64-9.69.5-11.67-.12-11.43-1.38-21.81-12.02-23.16-17.03-1.62-4.48-.21-3.4,2.68-2.46,2.91,1.18,7.32,2.21,12.27,3.21,2.09-2.81,4.22-6.04,7.1-8.69,2.28-2.38,5.34-2.01,9.02.09,3.54,2.07,7.69,5.89,8.92,9.59Z"/>
    <path class="cls-4" d="M803.65,716.54c-5.22,6.17-14.8,14.32-21.34,19.13-3.38,2.49-20.07,14.27-22.57,14.94-2.42.65-3.98.48-6.3-.38-3.27-1.22-17.17-11.15-20.88-13.89-19.42-14.34-42.9-39.77-45.53-64.76-4.66-44.23,39.28-65.63,69.55-33.17,15.51-13.99,33.49-20.95,53.02-9.55,34.85,20.34,13.42,64.79-5.95,87.7Z"/>
    <path class="cls-5" d="M1691.65,703.2c-5.16,3.06-13.35,6.4-18.62,8.09-2.65.99-16.01,4.69-17.32,4.61-1.23,0-1.62-.25-1.79-.91-.1-.83,1.53-7.45,1.65-9.54,1.92-9.88,3.66-30.55,3.9-51.5.82-18.45.49-30.59,5.93-33.56,4.85-3.07,15.48,3.04,24.63,18.56,5.55-8.42,12.94-10.16,23.97,2.14,20.59,22.01-1.58,51.34-22.34,62.11Z"/>
    <path class="cls-1" d="M1711.38,397.97c-.15,6.39-2.64,14.51-4.99,18.82-.95,2.56-7.81,12.1-9.13,12.24-1.12.4-1.85.19-2.97-.55-1.49-1.29-8.67-8.29-10.75-9.62-10.61-9.27-24.97-15.77-32.11-21.35-6.11-5.53-10.21-12.27-11.49-20.33-.93-7.65.95-16.61,14.91-17.1-5.81-11.63-11.72-22.85,1.76-26.85,11.96-3.56,29.39,6.13,39.99,20.45,11.18,14.18,15.53,32.98,14.77,44.3Z"/>
    <path class="cls-7" d="M1416.95,411.05c-6.51,7.7-18.45,17.85-26.6,23.84-4.22,3.1-25.01,17.78-28.13,18.62-3.02.81-4.96.6-7.86-.48-4.07-1.52-21.4-13.9-26.02-17.32-24.21-17.88-53.47-49.57-56.75-80.72-5.81-55.13,48.96-81.81,86.69-41.35,19.34-17.44,41.74-26.11,66.08-11.91,43.44,25.35,16.73,80.76-7.41,109.32Z"/>
    <path class="cls-3" d="M879.38,659.04c1.28,1.77,2.79,4.81,3.63,6.83.43,1.05,2.44,6.18,2.45,6.88s-.13,1.07-.51,1.63c-.53.78-4.03,3.77-4.99,4.57-5.02,4.16-13.2,8.66-19.91,7.73-11.89-1.64-14.65-14.54-4.18-20.37-2.66-4.97-3.32-10.13.93-14.51,7.59-7.81,17.84.68,22.59,7.24Z"/>
    <path class="cls-4" d="M1444.11,772.09c1.28,1.77,2.79,4.81,3.63,6.83.43,1.05,2.44,6.18,2.45,6.88s-.13,1.07-.51,1.63c-.53.78-4.03,3.77-4.99,4.57-5.02,4.16-13.2,8.66-19.91,7.73-11.89-1.64-14.65-14.54-4.18-20.37-2.66-4.97-3.32-10.13.93-14.51,7.59-7.81,17.84.68,22.59,7.24Z"/>
    <path class="cls-5" d="M1324.43,447.23c1.81,2.5,3.95,6.8,5.13,9.66.61,1.48,3.45,8.74,3.47,9.73.02.96-.19,1.52-.72,2.3-.75,1.1-5.71,5.34-7.06,6.46-7.09,5.88-18.67,12.25-28.17,10.94-16.82-2.33-20.72-20.57-5.92-28.81-3.76-7.03-4.69-14.33,1.32-20.52,10.73-11.05,25.24.96,31.95,10.24Z"/>
    <path class="cls-10" d="M1616.21,351.94c-3.5.34-8.96-.04-12.46-.52-1.81-.25-10.59-1.65-11.57-2.2s-1.39-1.06-1.85-2.03c-.65-1.37-1.96-8.69-2.28-10.67-1.69-10.37-1.28-25.43,5.49-34.01,11.99-15.2,32.18-8.52,31.75,10.8,9.08.36,16.8,3.65,19.42,13.13,4.68,16.93-15.51,24.27-28.5,25.52Z"/>
    <path class="cls-8" d="M696.4,904.03c-15.51.88-37.4-2.69-50.12-6.84-7.08-1.45-37.09-14.44-38.93-17.4-2.2-2.39-2.53-4.07-1.96-6.68,1.04-3.61,11.84-20.58,14.22-25.32,15.03-24.34,35.15-57.92,54.78-76.65,18.19-16.35,35.58-23.26,53.8-22.26,17.37,1.51,35.56,10.94,35.63,39.02,28.32-9.2,54.11-17.53,65.23,6.55,9.95,20.99-6.46,52.79-35.3,74.45-28.38,22.45-69.19,34.76-97.35,35.14Z"/>
    <path class="cls-5" d="M1112.97,512.54c-10.45,2.41-27.1,3.46-37.86,3.37-5.57-.05-32.65-.78-35.84-2.06-3.09-1.24-4.61-2.65-6.39-5.41-2.5-3.89-9.38-25.49-11.15-31.35-9.25-30.67-13.99-76.32,3.06-104.97,30.18-50.69,93.86-38.53,100.24,19.99,27.59-2.54,52.22,4.34,63.92,31.96,20.88,49.29-37.2,79.5-75.98,88.46Z"/>
    <path class="cls-2" d="M488.43,667.12c1.31,6.88,1.7,17.65,1.32,24.42-.03,3.58-1.73,20.28-2.65,21.94-.76,1.68-1.51,2.36-2.87,2.95-1.92.86-12.07,1.12-14.82,1.09-14.43,0-34.98-5.71-46.6-15.42-20.14-15.96-13.86-37.28,11.32-44.14-1.66-13.19-.39-25.82,10.46-34.94,19.19-17.61,39.66,17.61,43.85,44.1Z"/>
    <path class="cls-5" d="M1495.86,728.07c5.22-1.67,13.56-2.99,18.86-3.34,2.78-.31,15.93-.58,17.3-.02,1.38.43,1.97.95,2.56,1.95.85,1.41,2.02,9.28,2.26,11.42,1.36,11.22-1.12,27.74-7.57,37.69-10.5,17.17-27.67,14.31-35.39-4.61-10.1,2.54-20.03,2.75-28.15-4.82-15.51-13.25,9.93-32.5,30.13-38.27Z"/>
    <path class="cls-8" d="M307.04,591.79c-1.48,4.31-3.95,10.68-5.39,14.79-1.02,1.99-3.99,12.61-4.56,13.61-.76.87-1.49,1.03-2.85.83-1.95-.14-11.99-5.34-14.56-7.17-13.95-8-31.82-30.98-29.47-56.2,1.63-22.27,14.63-35.62,23.6-38.91,9.59-3.46,15.16,3.14,16.25,16.71,11.77-8.24,21.92-8.12,26.41,1.56,8,16.26-5.26,37.22-9.43,54.78Z"/>
    <path class="cls-8" d="M1097.56,533.63c7.94-3.94,20.06-9.36,27.69-13.08,4.13-1.36,22.77-11.97,24.92-12.58,2.24-.16,3.48.61,5.07,2.75,2.51,2.86,9.28,23.77,10.32,29.83,8.34,30.14,1.62,86.35-36.12,118.01-32.72,28.56-68.95,29.25-85.85,21.52-18-8.33-16.67-25.07.38-45.33-27.55-4.7-41.43-18.75-34.37-38.28,11.17-33.42,58.17-44.27,87.96-62.84Z"/>
    <path class="cls-3" d="M1071.31,321.08c-4.16,1.87-10.5,4.4-14.49,6.16-2.15.61-11.94,5.69-13.06,5.96-1.15.04-1.77-.38-2.55-1.52-1.23-1.52-4.29-12.4-4.7-15.54-3.67-15.65.91-44.4,20.94-59.91,17.39-14.01,36.02-13.64,44.54-9.33,9.08,4.64,8.06,13.22-1.11,23.28,14.06,2.97,20.91,10.47,16.89,20.36-6.41,16.95-30.78,21.57-46.46,30.51Z"/>
    <path class="cls-10" d="M774.97,610.76c-2.67,1.78-6.76,4.28-9.32,5.96-1.42.68-7.61,5.34-8.35,5.65-.79.16-1.27-.06-1.94-.75-1.03-.91-4.42-8.09-5.07-10.22-4.37-10.42-4.55-30.87,7.52-43.95,10.41-11.74,23.36-13.65,29.78-11.66,6.83,2.16,7.13,8.22,1.95,16.26,10.09.42,15.71,4.82,14.08,12.14-2.47,12.49-18.81,18.54-28.63,26.57Z"/>
    <path class="cls-11" d="M1408.17,463.82c-2.3-2.23-5.6-5.71-7.78-7.86-.96-1.24-6.82-6.32-7.28-6.98-.32-.74-.21-1.26.33-2.06.67-1.2,6.98-6.02,8.92-7.1,9.27-6.46,29.23-10.93,44.55-1.88,13.67,7.72,18.25,19.98,17.65,26.66-.67,7.13-6.54,8.7-15.49,5.32,1.71,9.95-1.41,16.37-8.91,16.31-12.73.21-22.08-14.5-31.99-22.41Z"/>
    <path class="cls-2" d="M347.08,398.27c-7.97.23-20.04-3.93-26.79-8.72-4.13-1.83-18.93-16.47-19.28-20.31-.91-3.27-.95-5.91-.31-10.25.07-6.64,11.69-34.36,16.6-40.37,20.65-37.81,72-59.12,91.28-56.87,17.79.59,12.09,3.96,4.84,12.71-8.13,8.49-17.82,22.37-28.17,38.17,6.87,11.16,15.13,23.02,20.35,36.72,5.11,11.2-.41,21.36-12.83,31.22-12.1,9.42-31.11,18.55-45.67,17.7Z"/>
    <path class="cls-6" d="M1207.65,801.39c-2.95-5.05-4.5-14.27-3.78-20.29-.27-3.3,3.96-17.95,6.31-19.52,1.78-1.73,3.47-2.68,6.48-3.79,4.29-2.28,26.2-4.53,31.79-3.48,31.56.03,63.27,25.59,68.58,38.79,5.85,11.65,1.69,9.17-6.48,7.57-8.31-2.25-20.64-3.62-34.43-4.74-4.77,8.33-9.51,17.8-16.49,25.96-5.42,7.22-13.88,7.22-24.58,2.69-10.31-4.48-22.84-13.51-27.4-23.17Z"/>
    <path class="cls-3" d="M1634.64,734.01c-2.95,7.41-11.56,16.84-18.63,21.14-3.32,3.07-22.63,10.85-26.29,9.64-3.36-.46-5.8-1.47-9.53-3.78-6.06-2.7-26.91-24.35-30.48-31.25-26.52-33.95-25.72-89.54-16.01-106.34,7.6-16.1,8.43-9.53,13.58.6,4.57,10.83,13.46,25.23,23.87,41,12.97-1.88,27.13-4.76,41.78-4.12,12.31-.25,19.45,8.85,23.57,24.16,3.85,14.85,4.69,35.92-1.86,48.94Z"/>
    <path class="cls-6" d="M1525.45,334.38c3.65-.22,10.19-.59,18.28-3.27,6.41-2.12,12.61-5.08,17.07-8.23,5.45-2.41,24.97-21.73,25.43-26.79,1.2-4.31,1.25-7.79.41-13.52-.09-8.75-15.42-45.32-21.89-53.25-27.23-49.87-94.97-77.99-120.4-75.01-9.07,1.06-15.47,3.51-15.47,3.51-8.38,5.09-12.15,14.83-12.58,20.07-1.26,15.21,22.16,33.92,58.83,43.54-25.91,1.88-46.2,14.34-51.33,31.76-2.99,10.15-.09,19.42,1.67,25.03,7.55,24.12,28.71,36.39,39.15,42.45,0,0,27.13,15.74,60.84,13.72Z"/>
    <path class="cls-10" d="M801.47,374.74c.17,5.48-1.39,13.9-3.27,18.98-.57,2.81-6.66,14.97-8.03,15.93-1.02,1.1-1.68,1.47-2.63,1.69-1.35.34-6.77-1.04-8.18-1.53-7.61-2.32-15.45-9.92-18.45-18.01-2.72-7.38-2.95-12.63-1.13-17.72,1.88-4.86,5.82-9.55,12.82-10.56-1.09-9.27-2.7-17.48,1.73-23.66,3.51-5.56,11.1-3.39,17.04,4.32,6.05,7.45,10.45,20.45,10.09,30.56Z"/>
    <path class="cls-10" d="M970.21,368.64c-1,5.39-.73,13.95.35,19.26.13,2.86,4.31,15.8,5.52,16.96.85,1.24,1.44,1.71,2.34,2.07,1.28.54,6.85,0,8.32-.27,7.88-1.14,16.78-7.46,20.97-15.01,3.8-6.88,4.83-12.04,3.8-17.34-1.12-5.09-4.3-10.32-11.08-12.38,2.49-9,5.31-16.87,1.88-23.65-2.63-6.02-10.46-5.03-17.5,1.69-7.11,6.45-13.43,18.63-14.6,28.68Z"/>
    <path class="cls-3" d="M325.85,731.3c4.73,2.77,12.87,5.43,18.23,6.22,2.74.85,16.33,1.32,17.82.58,1.45-.38,2.09-.78,2.74-1.5.95-1.02,2.32-6.44,2.58-7.92,1.6-7.8-1.31-18.32-6.98-24.82-5.18-5.92-9.68-8.64-15.02-9.47-5.17-.67-11.17.54-15.41,6.2-7.61-5.4-14.06-10.73-21.6-9.8-6.56.42-8.29,8.13-4.36,17.03,3.65,8.88,12.95,18.96,22,23.48Z"/>
    <path class="cls-5" d="M1364.49,805.15c3.91-2.31,9.1-7.14,11.83-10.71,1.71-1.64,7.52-11.3,7.58-12.68.31-1.2.28-1.83.01-2.59-.36-1.09-3.73-4.27-4.7-5.05-5-4.29-13.79-6.41-20.78-4.92-6.37,1.37-10.15,3.54-12.9,7.07-2.56,3.47-4.1,8.3-1.7,13.65-6.97,3.35-13.42,5.87-15.78,11.7-2.33,4.92,2.55,9.27,10.58,10.01,7.9.93,18.94-1.76,25.85-6.5Z"/>
    <g>
      <path class="cls-1" d="M1135.46,764.45c2.22-1.4,4.35-5.41,6.24-6.96.38-.31,1.25-.11,1.77-.56,2.3-1.95,6.93-8.13,7.64-11.53.42-1.93-.21-3.69-.11-5.68.36-6.62,4.91-14.88-4.77-18.22-4.12-1.38-6.17,1.08-8.63,3.49.39-.95.77-1.9,1.14-2.85-.62-1.34-1.08-1.16-2.01-.96.36-4.08-1.59-4.46-4.5-6.1.44-3.55-1.19-2.98-3.25-5.13-.55-.58-2.57-2.96-2.86-3.49-.63-1.17-.09-1.6-.41-2.57-.65-1.94-3.16-2.94-3.68-5.28-2.16-1.09-10.78.05-12.9.74-6.08,1.96-11,9.2-10.33,16.37.19,1.85,1.5,4.64,1.51,6.1.03,2.38-1.88,6.23-2.26,8.87-1.23,8.44,3.5,12.29,9.17,17.67,5.43,5.15,11.69,10.82,17.54,14.56,3.26,2.05,7.4,3.65,10.73,1.54ZM1119.09,733.75c.67.03,1.34.06,2.02.1-.62-.58-1.25-1.16-1.87-1.74,1.24-2.21,3.82-1.1,5.91-1.55,1.49-.32,2.74-1.16,4.16-1.52,2.04-.52,4.64-.23,6.6-1.69-.82,1.58.17,4.56-.24,5.9-.44,1.49-3.16,2.84-3.92,4.53-.54,1.22-.76,4.1-1.45,4.36-2.27.85-8.39-7.52-11.21-8.39Z"/>
      <path class="cls-1" d="M1163.8,747.46c-6.36-2.21-4.88,6.69.09,8.74,1.42.58,3.5-.07,4.57.66,1.13.76,3.12,4.15,4.48,5.33,1.78,1.54,3.82,2.22,5.5,3.73,1.76,1.58,2.87,4.48,4.88,6.27,2.64,2.34,6.84,4.84,7.87-1.6.46-2.96-2.04-6.37-3.64-7.72-1.94-1.66-3.84-1.75-5.45-2.8-1.78-1.16-3.34-3.65-5.52-4.88-1.9-1.07-6.2-1.37-7.26-2.05-1.22-.78-1.36-4.19-5.51-5.67Z"/>
      <path class="cls-1" d="M1160.23,724.74c-8.13-.06-3.15,8.12,2.83,8.9,1.59.2,3.63-1.33,5.15-.89,1.16.34,2.29,1.99,3.57,2.62,2.1,1.03,5.54.98,7.02,1.64,1.6.72,3.3,3.14,5.52,4.17,2.77,1.28,7.26,2.2,6.93-3.38-.29-4.28-5.58-6.55-7.96-7.4-7.37-2.66-15.47-3.37-23.06-5.67Z"/>
      <path class="cls-1" d="M1152.38,767.14c1.13,1.48,2.51,1.71,3.62,2.96,4.8,5.44,8.83,12.1,13.03,17.99,6.9,4.69,9.39-6.41,2.87-10.94-3.96-2.72-5.57-3.65-9.56-6.98-1.13-.95-4.28-2.15-4.83-3.13-.14-.26-.03-1.34-.37-2.02-4.31-8.35-7.79-1.75-4.76,2.12Z"/>
      <path class="cls-1" d="M1147.89,802.02c4.42-1.34,1.81-8.44.43-11.02-1.94-3.83-4.96-7.84-6.72-12.02-.75-1.78-.57-3.45-1.34-4.91-.43-.87-3.84-5.19-4.4-4.93.01,1.98-.15,4.68.42,6.51.59,1.89,2.04,3.08,2.64,4.65.58,1.53.32,3.48.68,4.91.58,2.36,2.01,4.44,2.61,6.48.19.64-.05,2.1.25,3.25.83,3.12,2.3,8.01,5.45,7.07Z"/>
      <path class="cls-1" d="M1130.02,699.29c6.63-.38,12.97-1.77,9.42-11.7-5.48-5.94-14.71,5.29-13.35,10.78.33.89,2.95,1.68,3.45,1.68.4,0,.34-.76.48-.77Z"/>
    </g>
    <g>
      <path class="cls-11" d="M1645.4,746c1.61.83,3.3,3.44,4.69,4.39.28.19.86,0,1.25.28,1.7,1.2,5.24,5.15,5.93,7.44.4,1.29.08,2.54.27,3.9.65,4.51,4.26,9.9-2.17,12.78-2.74,1.19-4.3-.36-6.12-1.87.32.63.64,1.25.95,1.88-.34.96-.67.86-1.32.78.49,2.77-.82,3.15-2.72,4.45.51,2.41-.64,2.11-1.92,3.71-.34.43-1.58,2.18-1.75,2.56-.36.84.03,1.1-.13,1.79-.33,1.37-1.99,2.21-2.21,3.84-1.42.88-7.39.62-8.89.27-4.29-.98-8.09-5.64-8.07-10.59.01-1.28.75-3.27.66-4.27-.12-1.63-1.67-4.16-2.08-5.94-1.35-5.71,1.66-8.63,5.21-12.66,3.41-3.85,7.36-8.12,11.14-11.03,2.11-1.6,4.85-2.95,7.26-1.7ZM1636.04,768.02c.46-.06.92-.12,1.38-.19-.39.44-.78.87-1.18,1.31.98,1.44,2.68.52,4.14.7,1.04.13,1.95.63,2.94.79,1.43.24,3.19-.12,4.63.76-.65-1.03-.16-3.14-.52-4.03-.39-1-2.33-1.76-2.96-2.87-.44-.8-.77-2.76-1.26-2.9-1.6-.44-5.3,5.66-7.17,6.43Z"/>
      <path class="cls-11" d="M1665.84,755.93c-4.22,1.9-3.75-4.29-.46-5.99.94-.48,2.4-.17,3.09-.73.73-.59,1.89-3.03,2.75-3.92,1.13-1.16,2.48-1.75,3.54-2.89,1.11-1.19,1.7-3.25,2.97-4.59,1.67-1.76,4.39-3.73,5.49.62.49,2-1.02,4.49-2.03,5.51-1.23,1.25-2.52,1.43-3.57,2.25-1.15.9-2.06,2.7-3.49,3.68-1.24.85-4.16,1.31-4.85,1.84-.79.61-.68,2.95-3.43,4.22Z"/>
      <path class="cls-11" d="M1664.77,771.71c-5.57.53-2.65-5.37,1.4-6.27,1.08-.23,2.57.69,3.58.3.78-.3,1.45-1.5,2.29-2.01,1.38-.83,3.73-1,4.71-1.55,1.05-.59,2.07-2.35,3.53-3.19,1.82-1.04,4.84-1.95,4.95,1.89.06,2.95-3.43,4.83-5.01,5.55-4.89,2.27-10.4,3.24-15.46,5.28Z"/>
      <path class="cls-11" d="M1656.83,743.13c.69-1.08,1.62-1.32,2.3-2.25,2.96-4.02,5.32-8.83,7.84-13.11,4.44-3.63,6.82,3.83,2.63,7.32-2.55,2.1-3.6,2.84-6.13,5.36-.72.72-2.8,1.73-3.12,2.43-.08.19.06.92-.13,1.4-2.45,5.98-5.23,1.67-3.39-1.16Z"/>
      <path class="cls-11" d="M1651.65,719.5c3.11.65,1.75,5.68.96,7.53-1.1,2.74-2.92,5.67-3.88,8.64-.41,1.26-.18,2.4-.62,3.44-.24.62-2.32,3.79-2.72,3.65-.11-1.36-.39-3.19-.11-4.48.29-1.33,1.21-2.23,1.52-3.35.31-1.08.01-2.41.17-3.41.26-1.65,1.11-3.17,1.4-4.6.09-.45-.16-1.43-.03-2.24.38-2.19,1.1-5.63,3.31-5.17Z"/>
      <path class="cls-11" d="M1645.61,790.97c4.56-.14,8.99.43,7.16,7.44-3.39,4.4-10.39-2.73-9.8-6.58.17-.63,1.92-1.33,2.26-1.36.27-.02.28.5.37.5Z"/>
    </g>
    <g>
      <path class="cls-7" d="M955.26,568.45c-1.69-6.34-8.38-13.84-10.34-19.55-.39-1.13.44-3.24-.15-4.82-2.58-6.91-11.65-22.35-17.44-26.56-3.29-2.4-6.86-2.13-10.4-3.92-11.95-6.03-23.31-24.63-35.66-4.87-5.26,8.42-2.39,15.92.32,24.31l-4.36-5.7c-2.85.05-2.85,1.33-3.15,3.76-7.09-5.31-9.14-1.2-14.31,3.69-6.03-5.28-6.23-.81-11.71,1.26-1.46.55-7.33,2.09-8.52,2.03-2.59-.13-2.91-1.93-4.9-2.53-3.94-1.18-7.84,3.06-12.4.81-3.72,3.24-9.44,23.91-10.19,29.61-2.14,16.27,6.53,38.42,21.19,46.74,3.77,2.14,10.42,2.8,13.3,4.61,4.72,2.96,10.81,12.11,15.9,16.03,16.32,12.56,28.43,4.87,43.48-4.45,14.49-8.98,30-20.98,40.71-33.87,5.95-7.15,11.16-17.06,8.63-26.57ZM884.92,586.44l1.64-4.77-4.73,2.77c-3.37-5.24.67-10.29,1.31-15.79.45-3.92-.24-7.76.09-11.55.47-5.44,2.82-11.39,1.47-17.6,2.34,3.58,8.53,4.08,10.75,6.28,2.49,2.45,3.22,10.3,5.94,13.68,1.95,2.42,7.33,5.4,7.41,7.3.26,6.5-20.08,14.03-23.88,19.68Z"/>
      <path class="cls-7" d="M937.83,487c-7.32,14.67,9.6,16.57,15.67,4.73,1.71-3.34,1.52-8.97,3.3-11.34,1.87-2.5,8.77-6.08,11.44-9.13,3.47-3.98,5.5-8.98,8.81-12.82,3.46-4,8.95-6.05,12.77-10.86,5.05-6.36,10.64-16.78.05-20.91-4.85-1.89-11.55,3.51-14.5,7.13-3.59,4.41-4.52,9.27-7,13.01-2.74,4.13-7.71,7.02-10.83,12.01-2.71,4.34-5.23,15.14-6.93,17.49-1.97,2.7-8.02,1.16-12.77,10.69Z"/>
      <path class="cls-7" d="M896.04,478.11c-5.27,19.81,12.31,15.17,17.1.81,1.26-3.78-.21-10.06,1.41-13.45,1.24-2.6,4.69-4.11,6.47-6.83,2.91-4.46,4.64-13.08,6.54-16.3,2.05-3.48,6.97-6.1,9.79-11.06,3.52-6.2,7.11-16.91-2.17-19.62-7.1-2.08-13.53,9.35-16.24,14.6-8.35,16.2-14.23,35.51-22.91,51.86Z"/>
      <path class="cls-7" d="M968.38,526.19c3.29-2.35,4.3-5.83,7.12-8.26,12.17-10.54,25.93-19.72,37.94-30.53,10.42-17.99-8.6-24.82-18.9-8.93-6.32,9.75-8.6,13.74-16.32,23.06-2.19,2.64-5.73,10.36-7.8,11.4-.54.27-2.49-.43-3.9.16-17.47,7.33-6.88,19.34,1.86,13.1Z"/>
      <path class="cls-7" d="M1033.96,542.92c-1.52-11.47-15.9-4.14-21.39-.77-8.05,4.93-16.98,12.27-25.91,15.81-3.8,1.51-7.01.54-10.21,2.06-1.87.88-11.94,8.04-11.71,9.54,3.93.8,9.23,2.2,13.13,1.29,4.02-.93,6.98-4.39,10.35-5.57,3.26-1.15,7.05-.1,10.03-.79,4.91-1.15,9.54-4.7,13.78-6.17,1.32-.46,4.15.23,6.53-.56,6.45-2.12,16.51-6.58,15.41-14.84Z"/>
      <path class="cls-7" d="M830.2,519.43c4.85-15.65,7.31-31.34-11.81-37.94-14.28,2.95-3.96,40.56,6.95,45.45,1.83.56,5.39-4.23,5.79-5.36.32-.9-1.03-1.81-.93-2.15Z"/>
    </g>
    <g>
      <path class="cls-6" d="M525.26,255.81c-3.66,3.49-4.79,8.95-7.35,12.26-.51.66-2.38,1.5-3.03,2.45-3.01,4.14-6.37,14.22-5.1,17.65.66,1.96,2.83,2.63,3.9,4.36,3.45,6.08,1.34,17.07,16.02,11.84,6.33-2,8.73-5.86,12.11-10.1-.39,1.24-.75,2.49-1.1,3.73,1.29.96,1.94.47,3.37-.35.26,4.54,3.23,3.66,7.84,3.94-.45,4.14,1.97,2.64,5.01,4.16.83.39,3.61,2.31,3.95,2.83.77,1.11-.06,1.79.27,2.8.65,1.98,3.93,2.38,4.07,4.99,2.49.46,14.68-2.06,18.27-2.61,9.42-2.41,22.85-8.93,26.34-17.21.84-2.16-.14-5.75.54-7.42,1.11-2.77,6.92-6.62,8.92-9.55,6.44-9.36-3.94-16.5-18.51-22.85-13.89-6.22-32.54-10.26-49.47-9.34-9.37.37-20.61,3.14-26.07,8.41ZM574.7,275.39c-1.39.17-2.77.35-4.14.55,1.32.43,2.62.88,3.91,1.34-2.45,2.83-7.58,2.46-11.57,3.91-2.83,1.02-5.05,2.55-7.59,3.7-3.64,1.64-8.33,2.94-11.29,5.81,1.02-2.2-1.54-4.57-1.3-6.19.26-1.84,4.86-5.1,5.83-7.32.67-1.61.06-4.68,1.34-5.41,4.6-2.71,19.39,3.15,24.81,3.63Z"/>
      <path class="cls-6" d="M489.28,303.1c10.68-7.27,1.45-11.17-7.88-4.5-2.56,1.89-4.69,5.42-6.73,6.81-2.16,1.44-8.02,3.55-10.85,5.64-3.7,2.68-6.64,6.17-9.96,9.05-3.47,3.01-7.77,5.01-11.54,9.08-5.06,5.32-10.6,14.49-3.98,15.34,2.98.37,8.22-4.59,10.87-7.42,3.19-3.5,4.86-6.88,7.4-9.6,2.82-2.99,6.84-5.11,10.31-8.32,2.95-2.85,8.21-9.55,10.23-10.87,2.3-1.52,5.43-.25,12.14-5.22Z"/>
      <path class="cls-6" d="M509.78,314.83c10.3-8.42-.64-10.53-9.06-3.64-2.13,1.8-3.42,5.39-5.4,7-1.53,1.23-3.98,1.64-5.83,2.99-3.06,2.19-6.3,7-8.13,8.78-2.01,1.9-5.58,3.3-8.26,6.31-3.41,3.73-7.03,10.52-1.59,11.61,4.05.81,9.21-5.66,11.78-8.42,7.52-8.66,15.98-18.31,26.51-24.62Z"/>
      <path class="cls-6" d="M488.95,275.89c-3.55.96-6.19,3.01-9.42,4.27-13.97,5.49-28.32,12-41.51,21.75-14.39,15.89-2.28,17.65,10.25,5.07,8.12-7.45,11.45-10.34,21.09-16.34,2.71-1.7,8.99-6.42,10.96-6.83.51-.12,1.45.52,2.7.31,15.15-2.19,15.31-10.45,5.93-8.23Z"/>
      <path class="cls-6" d="M451.33,260.05c-6.02,8.68,9.76,2.89,16,1.11,9.23-3.04,20.83-6.64,29.62-7.07,3.73-.19,5.23.99,8.47.81,1.92-.23,13.74-1.53,14.71-2.21-1.91-1.43-4.31-3.5-7.63-3.95-3.42-.47-8.07.79-11.29.83-3.13.03-5.04-1.26-7.71-1.34-4.4-.14-10.44,1.47-14.67,2.01-1.32.16-2.96-.59-5.35-.26-6.4.78-17.62,3.7-22.14,10.08Z"/>
      <path class="cls-6" d="M554.88,318.28c-8.73,3.22-15.02,8.5-10.46,17.58,4.63,3.92,15.33-12.09,15.39-18-.28-.94-3.62-.88-4.26-.65-.51.17-.49,1-.67,1.07Z"/>
    </g>
    <g>
      <path class="cls-6" d="M1481.06,885.92c-5.29-2.72-8.38-8.5-12.36-11.39-.79-.57-3.18-.9-4.23-1.76-4.77-3.66-11.92-13.91-11.61-18.2.09-2.42,2.32-3.91,2.95-6.22,1.86-8-4.16-19.7,14.12-18.68,7.81.15,11.79,3.7,17.01,7.36-.85-1.27-1.68-2.55-2.48-3.84,1.13-1.51,2.03-1.17,3.92-.72-1.22-5.2,2.42-5.2,7.54-7.05-1.89-4.51,1.34-3.63,4.26-6.36.8-.72,3.31-3.8,3.52-4.5.5-1.51-.66-2-.63-3.25.07-2.44,3.64-4,2.93-6.98,2.66-1.35,17.24-2.56,21.47-3.14,11.42-.42,28.74,2.47,35.42,10.65,1.66,2.16,1.75,6.53,3.08,8.19,2.17,2.75,10,5.16,13.24,7.8,10.37,8.41,1.05,19.92-13.28,31.92-13.59,11.64-33.28,22.39-52.67,26.98-10.69,2.69-24.28,3.32-32.19-.81ZM1530.3,847.4c-1.62.27-3.24.53-4.85.76,1.34-.92,2.66-1.86,3.97-2.81-3.7-2.38-9.37-.25-14.35-.56-3.53-.21-6.54-1.19-9.79-1.64-4.66-.64-10.37-.55-14.66-2.79,1.88,2.14-.22,5.67.59,7.42.91,1.99,7.18,4.13,9.01,6.32,1.29,1.59,1.62,5.26,3.31,5.66,6.09,1.53,20.82-10,26.77-12.34Z"/>
      <path class="cls-6" d="M1424.76,844.55c14.46,4.64,5.34,12.12-7.39,7.69-3.51-1.28-7.1-4.55-9.86-5.44-2.92-.9-10.23-1.34-14.12-2.75-5.06-1.79-9.53-4.75-14.25-6.89-4.91-2.24-10.43-3.06-16.03-6.4-7.47-4.32-16.77-12.81-9.59-15.97,3.24-1.41,10.8,2.44,14.72,4.75,4.75,2.88,7.77,6.15,11.54,8.36,4.18,2.43,9.42,3.48,14.39,5.96,4.27,2.23,12.43,8.04,15.15,8.85,3.1.95,6.21-1.52,15.43,1.85Z"/>
      <path class="cls-6" d="M1443.97,824.51c14.42,6.07,2.77,12.09-9.01,7.12-3-1.32-5.65-4.94-8.42-6.1-2.13-.88-5.04-.52-7.57-1.43-4.18-1.45-9.43-5.8-12.09-7.2-2.9-1.47-7.39-1.86-11.41-4.37-5.09-3.08-11.42-9.53-5.66-12.56,4.3-2.26,12.27,3.31,16.08,5.58,11.36,7.27,24.11,15.33,38.08,18.95Z"/>
      <path class="cls-6" d="M1433.43,875.35c-4.33.1-7.98-1.33-12.04-1.68-17.58-1.54-35.92-4.11-54.04-10.72-21.51-13.14-8.44-19.15,9.87-9.13,11.64,5.7,16.35,7.85,29.21,11.42,3.62,1.02,12.28,4.24,14.63,4.05.61-.04,1.47-1.07,2.94-1.24,17.82-2.57,20.74,6.69,9.43,7.31Z"/>
      <path class="cls-6" d="M1396.28,905.73c-9.68-7.78,10.05-6.51,17.67-6.57,11.41.35,25.7.56,35.75-1.88,4.27-1.02,5.57-2.85,9.28-3.73,2.23-.38,16-2.84,17.32-2.4-1.68,2.25-3.7,5.38-7.29,6.99-3.7,1.67-9.37,1.79-13.01,2.82-3.54,1.01-5.27,3.1-8.25,4.08-4.92,1.62-12.26,1.81-17.21,2.62-1.54.26-3.14,1.65-5.94,2.08-7.48,1.25-21.1,1.69-28.32-4.01Z"/>
      <path class="cls-6" d="M1493.69,805.62c-10.92-.72-19.76-4.59-17.64-16.34,3.92-5.96,21.31,8.54,23.34,15.17,0,1.16-3.79,2.19-4.59,2.15-.63-.02-.89-.97-1.11-.98Z"/>
    </g>
    <g>
      <path class="cls-6" d="M1736.75,523.13c-3.93-3.19-9.49-3.61-13.1-5.72-.72-.42-1.79-2.17-2.82-2.69-4.49-2.45-14.92-4.51-18.15-2.8-1.86.9-2.25,3.15-3.83,4.43-5.59,4.19-16.76,3.51-9.7,17.4,2.79,6.03,6.92,7.91,11.56,10.72-1.28-.22-2.56-.43-3.84-.62-.79,1.4-.21,1.98.78,3.3-4.47.83-3.22,3.67-2.91,8.28-4.16.08-2.37,2.29-3.49,5.5-.29.87-1.83,3.88-2.3,4.28-1,.91-1.79.17-2.74.63-1.88.9-1.86,4.21-4.43,4.68-.14,2.53,3.92,14.3,4.92,17.79,3.59,9.03,11.77,21.53,20.44,23.92,2.25.56,5.68-.88,7.43-.41,2.89.75,7.45,6.02,10.61,7.63,10.1,5.19,15.87-6.01,20.3-21.28,4.4-14.57,6.02-33.59,2.95-50.25-1.57-9.24-5.74-20.04-11.67-24.78ZM1723.64,574.66c-.34-1.36-.7-2.7-1.07-4.04-.26,1.36-.54,2.71-.83,4.05-3.12-2.07-3.4-7.21-5.35-10.98-1.37-2.68-3.17-4.68-4.64-7.06-2.09-3.41-3.98-7.88-7.2-10.45,2.31.73,4.34-2.11,5.98-2.08,1.86.02,5.68,4.17,8.01,4.85,1.68.46,4.65-.54,5.54.63,3.28,4.22-.64,19.63-.43,25.07Z"/>
      <path class="cls-6" d="M1685.24,493.48c8.57,9.67,11.26,0,3.46-8.39-2.2-2.29-5.97-3.96-7.62-5.81-1.7-1.96-4.55-7.5-6.98-10.04-3.13-3.32-6.97-5.79-10.25-8.73-3.43-3.05-5.96-7.07-10.47-10.29-5.92-4.33-15.72-8.67-15.72-1.99.01,3,5.6,7.57,8.74,9.83,3.88,2.71,7.45,3.94,10.46,6.12,3.33,2.42,5.94,6.14,9.57,9.16,3.2,2.56,10.52,6.92,12.08,8.76,1.8,2.08.94,5.36,6.73,11.37Z"/>
      <path class="cls-6" d="M1676.23,515.3c9.67,9.15,10.36-1.98,2.45-9.45-2.06-1.88-5.78-2.71-7.63-4.46-1.42-1.35-2.13-3.74-3.71-5.4-2.56-2.75-7.75-5.35-9.75-6.95-2.14-1.75-3.98-5.11-7.31-7.38-4.14-2.91-11.33-5.63-11.72-.1-.29,4.12,6.79,8.42,9.86,10.6,9.55,6.35,20.2,13.51,27.81,23.15Z"/>
      <path class="cls-6" d="M1712.19,489.67c-1.41-3.4-3.77-5.76-5.44-8.8-7.23-13.16-15.51-26.55-26.87-38.39-17.6-12.24-17.8,0-3.73,10.81,8.43,7.11,11.72,10.04,18.9,18.83,2.04,2.47,7.51,8.1,8.17,10,.18.49-.33,1.51.04,2.71,4.11,14.75,12.32,13.85,8.92,4.83Z"/>
      <path class="cls-6" d="M1723.1,450.34c-9.38-4.87-1.62,10.05.95,16.01,4.19,8.76,9.25,19.81,10.79,28.47.67,3.67-.31,5.31.28,8.51.47,1.87,3.27,13.43,4.07,14.31,1.18-2.08,2.92-4.72,2.94-8.07.03-3.45-1.82-7.9-2.26-11.1-.43-3.1.61-5.16.35-7.82-.42-4.38-2.79-10.17-3.86-14.29-.33-1.29.2-3.01-.42-5.34-1.59-6.25-5.92-17-12.83-20.68Z"/>
      <path class="cls-6" d="M1678.56,560.48c-4.31-8.25-10.35-13.81-18.77-8.13-3.3,5.09,13.95,13.66,19.81,12.97.9-.4.41-3.7.1-4.31-.23-.49-1.06-.36-1.15-.53Z"/>
    </g>
    <g>
      <path class="cls-10" d="M362.41,474.63c-1.97-1.94-5.71-3.08-7.56-4.89-.37-.36-.56-1.47-1.07-1.97-2.29-2.12-8.25-6.51-10.94-6.89-1.54-.19-2.67.97-4.18,1.16-4.97.76-12.62-5.28-12.41,8.94.25,6.06,3,8.76,5.91,11.75-.9-.38-1.8-.77-2.7-1.17-.8,1.04-.47,1.66.08,2.93-3.37.02-2.9,2.77-2.88,7.08-3.09-.23-1.89,2-2.64,5.15-.21.84-1.18,3.93-1.47,4.4-.66,1-1.3.25-1.97.78-1.33,1.04-.85,4.76-2.61,5.6.08,3.27,6.41,15.57,8.64,18.33,5.95,8.35,16.63,12.93,22.01,9.38,1.39-.89,2.62-3.51,3.77-4.09,1.89-.95,6.42-.45,8.71-1.33,7.35-2.82,6.14-9.89,6.06-18.24-.15-8.08-.06-17.06-.56-24.73-.32-4.28-1.23-9.24-4.18-12.17ZM348.55,504.44c-.39-.82-.77-1.64-1.14-2.47-.08.94-.15,1.89-.21,2.85-2.47-.79-3.14-4.35-4.63-6.86-1.07-1.8-2.38-3.18-3.39-4.94-1.46-2.53-2.46-6.01-4.46-8.39,1.59.81,3.46-1.12,4.66-.89,1.33.26,3.62,3.42,5.29,3.9,1.19.36,3.46-.23,4,.52,1.73,2.47-1.19,12.57-.11,16.28Z"/>
      <path class="cls-10" d="M341.64,443.39c-.58,9.1,5.66,5.51,6.32-1.45.21-1.98-.48-4.68-.05-6.23.44-1.64,2.75-4.83,3.56-6.82,1.04-2.62,1.53-5.45,2.68-7.92,1.2-2.58,3.34-4.46,4.81-7.38,1.9-3.87,4.45-9.68.13-10.5-2-.38-4.96,3.34-6.18,5.68-1.5,2.84-1.8,5.5-2.69,7.84-.98,2.58-2.86,4.99-3.78,8.16-.85,2.77-.9,8.75-1.27,10.29-.44,1.78-2.97,2.4-3.52,8.32Z"/>
      <path class="cls-10" d="M325.41,450.29c1.48,12.08,6.54,4.14,6.21-4.52-.07-2.31-1.39-5.24-1.16-7.51.18-1.73,1.32-3.44,1.75-5.35.68-3.13.75-8.23,1.36-10.45.63-2.39,2.5-4.92,3.55-8.22,1.25-4.13,2.92-10.76-.98-10.57-3.06.15-5.85,8.12-6.74,11.75-3.01,11.21-3.47,23.56-4,34.87Z"/>
      <path class="cls-10" d="M358.23,454.15c.74-1.77.55-3.49,1.19-5.17,2.76-7.24,6.85-13.76,10.66-20.19,2.95-9.26-4.77-10.25-7.91-1.15-1.71,5.55-2.2,7.77-3.96,13.51-.51,1.64-.75,5.83-1.31,6.75-.15.24-.95.36-1.36.95-5.03,7.43.82,10.09,2.69,5.3Z"/>
      <path class="cls-10" d="M383.71,448.1c-2.14-4.03-6.26.94-7.62,3.31-2.06,3.34-3.79,7.94-6.01,11.32-.95,1.44-2.18,1.83-2.9,3.19-.46.76-2.07,6.05-1.63,6.57,1.39-.74,3.33-1.59,4.36-2.88,1.05-1.33,1.28-3.3,2.13-4.51.82-1.17,2.27-1.64,3.11-2.53,1.38-1.48,2.27-3.7,3.44-5.06.36-.42,1.44-.72,2.11-1.44,1.82-1.99,4.57-5.16,3.01-7.96Z"/>
      <path class="cls-10" d="M314.53,495.62c-3.45-9.98-6.33-19.75-13.59-15.91-3.71,7.96,10.41,24.33,14.69,21.76.6-.49,0-4.38-.22-5.13-.19-.59-.8-.51-.88-.72Z"/>
    </g>
    <g>
      <path class="cls-11" d="M506.17,790.13c-4.68,2.41-8.94,8.48-13.32,10.75-.87.45-2.98.14-4.19.77-5.19,2.88-16.64,11.04-18.92,15.67-1.25,2.67.16,5.4-.38,8.23-1.58,9.43-17.02,19.64,8.76,27.7,11.08,3.14,17.6-.22,24.71-3.69-1.22,1.4-2.46,2.8-3.72,4.18,1.39,2.06,2.71,1.84,5.33,1.6-1.97,6.1,3.28,6.89,11.06,9.39-2.25,5.43,2.48,4.59,7.73,7.83,1.38.88,6.4,4.46,7.06,5.26,1.41,1.78-.32,2.5.23,4.01,1.1,3.01,8.08,4.35,8.55,8.02,5.96,1.79,31.91-2.33,38.21-4.72,18.61-5.79,33.2-22.35,29.98-34.15-.78-3.04-4.78-6.8-5.14-9.24-.59-3.97,3-11.85,2.77-16.51-.73-14.93-14.2-16.95-29.32-21.76-14.67-4.53-30.83-10.02-44.97-13.66-7.91-1.95-17.41-3.27-24.44.31ZM551.74,832.85c-1.71.21-3.42.41-5.13.59,1.66.71,3.33,1.4,5.01,2.07-2.89,3.99-9.71,3.09-15.13,4.29-3.88.87-7.15,2.42-10.93,3.19-5.44,1.12-12.31.87-17.78,3.07,2.41-2.4.04-6.91,1.16-8.94,1.26-2.24,8.32-4.5,10.18-7.23,1.35-1.93,1.64-6.38,3.31-6.91,5.48-1.66,21.97,9.61,29.31,9.85Z"/>
      <path class="cls-11" d="M437.46,809.09c16.09,6.45,13.31-6.95,1.14-12.26-3.46-1.56-8.73-1.9-11.27-3.61-2.7-1.77-7.08-7.83-10.19-10.47-4.1-3.43-8.93-6-12.71-9.54-3.94-3.7-6.08-8.68-10.47-13.07-5.85-5.73-14.84-13.77-18.88-6.46-1.87,3.39,3.09,10.94,6.59,14.52,4.23,4.39,8.86,6.51,12.56,9.52,4.08,3.31,7.31,8.12,12.49,11.68,4.5,3.17,15.26,6.81,17.81,8.4,2.94,1.86,2.56,6.79,12.93,11.3Z"/>
      <path class="cls-11" d="M440.28,842.47c22.68,4.5,11.35-9.35-4.47-13.89-4.22-1.25-10.28-.6-14.24-2.37-3.02-1.34-5.42-4.43-8.61-6.34-5.24-3.08-14.41-6.25-18.06-8.66-3.94-2.56-7.39-7.44-12.74-11.28-6.72-4.71-17.69-11.66-19.65-4.51-1.54,5.62,11.18,15.38,17.21,19.13,18.45,12.08,40.45,20.24,60.56,27.91Z"/>
      <path class="cls-11" d="M466.72,785.53c-2.75-2.39-5.98-3.07-8.62-5.21-11.43-9.27-20.76-20.53-30.11-31.23-14.96-10.81-21.33,2.53-6.77,13.6,9,6.38,12.72,8.57,22.03,15.17,2.65,1.89,10.08,4.81,11.4,6.37.34.42.09,1.93.9,3.02,10.43,13.48,18.7,4.51,11.16-1.72Z"/>
      <path class="cls-11" d="M470.91,735.95c-8.55,1.47-2.01,11.85,1.46,15.72,4.81,5.7,12.08,11.55,16.86,17.56,2.03,2.56,2.02,5.02,4.03,7.13,1.11,1.28,9.69,7.34,10.89,6.85-.52-2.94-.89-6.95-2.62-9.57-1.78-2.69-5.2-4.26-6.88-6.52-1.63-2.18-1.61-5.06-2.73-7.11-1.85-3.37-5.34-6.29-7.08-9.22-.55-.91-.44-3.02-1.34-4.67-2.51-4.47-6.59-11.31-12.59-10.16Z"/>
      <path class="cls-11" d="M515.64,889.02c-20.06.31-39.41-.29-36.79,15.09,12.16,11.42,50.1-4.35,48-13.6-.53-1.37-7.91-2.6-9.39-2.64-1.18-.01-1.39,1.15-1.82,1.15Z"/>
    </g>
    <g>
      <path class="cls-8" d="M1515.91,498.15c6.46,1.41,15.46-1.05,21.51.26,1.2.26,2.99,2.25,4.67,2.61,7.34,1.37,24.96,2.64,30.88-.01,3.35-1.58,4.17-5.35,6.96-7.67,9.08-7.87,32.22-5.38,13.71-33.85-8.22-11.92-17.22-13.88-26.89-16.23,2.31-.38,4.63-.73,6.95-1.07.31-3.11-1.15-3.96-3.89-5.82,6.8-4.33,2.34-9.3-3.19-17.96,6.53-3.46,1.28-6.43-1.21-13.78-.64-1.96-2.63-9.45-2.63-10.75.07-2.85,2.32-2.17,2.99-4.08,1.35-3.8-4.34-10.69-1.86-14.63-4.33-6.51-32.77-23.31-40.79-26.04-22.66-9.3-50.06-4.95-56.4,9.06-1.68,3.57-.82,10.41-2.42,13.07-2.61,4.31-12.4,9.07-15.92,13.77-11.26,15.04.18,27.79,10.97,44.57,10.58,16.13,21.83,34.4,32.62,49.26,6.1,8.23,14.24,17.12,23.92,19.28ZM1505.99,420.26c1.82,1.16,3.64,2.34,5.44,3.54-1.04-2.01-2.1-4.02-3.19-6.02,5.99-1.55,11.88,4.79,18.09,7.96,4.46,2.26,8.86,3.39,13.15,5.66,6.17,3.27,12.62,9.02,19.69,11.27-4.25.39-5.57,6.66-8.28,7.73-3.01,1.17-11.66-2.31-15.65-1.16-2.85.8-6.7,4.86-8.75,4.04-6.64-2.78-13.58-26.91-20.5-33.03Z"/>
      <path class="cls-8" d="M1597.64,534.83c-10.41-19.13-18.46-3.94-10.92,10.97,2.1,4.28,6.93,8.84,8.02,12.52,1.2,3.89.59,13.25,1.49,18.31,1.23,6.61,3.84,12.97,4.66,19.42.85,6.75-1.07,13.27-.33,21.04,1.08,10.24,3.34,25.22,13.11,21.39,4.53-1.79,5.78-13.08,5.24-19.35-.58-7.65-3.37-13.41-4.54-19.28-1.3-6.47-.58-13.72-2.74-21.31-1.81-6.68-9.32-18.82-10.52-22.41-1.36-4.15,2.96-8.63-3.47-21.31Z"/>
      <path class="cls-8" d="M1621.64,500.24c-18.36-22.53-18.48-.04-6.8,17.03,3.08,4.59,9.48,8.82,11.89,13.7,1.85,3.72,1.7,8.63,3.27,13.04,2.61,7.18,8.95,17.6,10.55,22.85,1.77,5.63,1.19,13.12,3.3,21.13,2.73,9.95,7.79,25.46,15.42,20.11,5.99-4.21,1.5-23.85-1.34-32.32-8.19-26.48-22.96-52.02-36.3-75.54Z"/>
      <path class="cls-8" d="M1550.42,534.21c.75,4.51,3.33,7.76,4.17,11.95,3.65,18.14,3.66,36.52,4.14,54.37,5.83,22.46,22.69,14.64,17.45-7.75-3.61-13.39-5.45-18.49-9.19-32.35-1.05-3.95-5.91-12.73-5.94-15.3,0-.68,1.45-1.94,1.54-3.64.69-21.42-14.5-19.35-12.19-7.28Z"/>
      <path class="cls-8" d="M1506.64,578.87c9.46,5.42,11.44-9.87,11.18-16.39-.1-9.37-2.45-20.86-2.26-30.51.09-4.11,2.07-6.48,1.81-10.13-.05-2.13-3.51-14.87-5.07-15.36-1.86,3.26-4.71,7.45-5.13,11.37-.43,4.03,1.62,8.29,1.44,11.83-.17,3.42-2.5,6.19-3.05,9.07-.91,4.75.13,10.37-.52,14.6-.2,1.32-1.99,3.28-2.44,5.6-1.15,6.34-2.67,16.24,4.05,19.92Z"/>
      <path class="cls-8" d="M1585.95,394.78c19.68,15.77,37.93,31.85,47.72,14.86-2.63-20.8-52.01-35.92-57.38-25.28-.59,1.75,5.57,8.85,6.98,10.08,1.13.95,2.27,0,2.69.35Z"/>
    </g>
  </g>
</svg>